<?xml version="1.0" encoding="UTF-8" standalone="no"?>
<!-- Created with Inkscape (http://www.inkscape.org/) -->

<svg
   width="210mm"
   height="297mm"
   viewBox="0 0 210 297"
   version="1.1"
   id="svg9053"
   inkscape:version="1.2.2 (b0a8486541, 2022-12-01)"
   sodipodi:docname="mosaico.svg"
   xmlns:inkscape="http://www.inkscape.org/namespaces/inkscape"
   xmlns:sodipodi="http://sodipodi.sourceforge.net/DTD/sodipodi-0.dtd"
   xmlns="http://www.w3.org/2000/svg"
   xmlns:svg="http://www.w3.org/2000/svg">
  <sodipodi:namedview
     id="namedview9055"
     pagecolor="#ffffff"
     bordercolor="#000000"
     borderopacity="0.25"
     inkscape:showpageshadow="2"
     inkscape:pageopacity="0.0"
     inkscape:pagecheckerboard="0"
     inkscape:deskcolor="#d1d1d1"
     inkscape:document-units="mm"
     showgrid="false"
     inkscape:zoom="0.75277076"
     inkscape:rotation="90"
     inkscape:cx="395.87085"
     inkscape:cy="561.92406"
     inkscape:window-width="1920"
     inkscape:window-height="1011"
     inkscape:window-x="0"
     inkscape:window-y="32"
     inkscape:window-maximized="1"
     inkscape:current-layer="layer1" />
  <defs
     id="defs9050" />
  <g
     inkscape:label="Layer 1"
     inkscape:groupmode="layer"
     id="layer1">
    <path
       style="fill:#d3bc5f;stroke:#000000;stroke-width:1;stroke-dasharray:4, 1"
       d="m 81.696699,258.06474 -48.49097,-2.18254 17.796052,-83.67573 42.666054,38.78791 -26.480759,11.4349 z"
       id="path9420" />
    <path
       style="fill:#a02c2c;stroke:#000000;stroke-width:1;stroke-dasharray:4, 1"
       d="M 92.040591,263.14203 76.43944,224.76652 109.2891,211.24774 132.698,248.25338 89.44206,227.51086 Z"
       id="path9422" />
    <path
       style="fill:#000000;stroke:#000000;stroke-width:1;stroke-dasharray:4, 1"
       d="m 97.078841,261.0379 -3.475728,-27.12882 36.059537,18.02977 z"
       id="path9424" />
    <path
       style="fill:#ff7f2a;stroke:#000000;stroke-width:1;stroke-dasharray:4, 1"
       d="m 100.40358,209.64133 -46.564018,-42.6236 92.702288,4.4808 -9.00958,76.75073 -29.06847,-45.42507 z"
       id="path9426" />
    <path
       style="fill:#ffd5d5;stroke:#000000;stroke-width:1;stroke-dasharray:4, 1"
       d="m 80.179162,264.94437 0.354927,22.40892 -72.8190578,-7.19786 5.6485748,-130.6442 32.019209,21.02532 -20.279695,90.78489 z"
       id="path9428"
       sodipodi:nodetypes="ccccccc" />
    <path
       style="fill:#00ff00;stroke:#000000;stroke-width:1;stroke-dasharray:4, 1"
       d="m 46.855606,161.82053 -32.599446,-20.69608 0.270431,-27.16716 139.826099,-0.99755 49.80243,96.449 -35.45941,64.25967 -26.09187,-22.30464 10.26858,-86.59985 z"
       id="path9430"
       sodipodi:nodetypes="ccccccccc" />
    <path
       style="fill:#d4aa00;stroke:#000000;stroke-width:1;stroke-dasharray:4, 1"
       d="m 165.08305,276.73591 -25.7565,-21.99145 -46.393359,12.69224 -9.039114,-2.63914 0.982594,23.13422 44.088679,5.33297 z"
       id="path9432" />
    <path
       style="fill:#000080;stroke:#000000;stroke-width:1;stroke-dasharray:4, 1"
       d="M 14.905487,106.71537 158.34805,105.34395 207.93853,203.0008 207.31964,95.563879 80.184624,31.226609 Z"
       id="path9436" />
    <path
       style="fill:#800080;stroke:#000000;stroke-width:1;stroke-dasharray:4, 1"
       d="M 10.959197,99.525702 73.482877,29.273951 1.755337,4.0377642 Z"
       id="path9438" />
    <path
       style="fill:#000000;stroke:#000000;stroke-width:1;stroke-dasharray:4, 1"
       d="M 2.8039504,281.02023 11.853437,111.85438 1.6071961,1.2189792 Z"
       id="path9440" />
    <path
       style="fill:#ff00ff;stroke:#000000;stroke-width:1;stroke-dasharray:4, 1"
       d="M 77.284029,23.362603 5.4214349,1.2923042 93.127165,0.7569333 130.09496,53.355387 84.74422,7.5989375 Z"
       id="path9442" />
    <path
       style="fill:#aca793;stroke:#000000;stroke-width:1;stroke-dasharray:4, 1"
       d="M 82.611642,28.223032 128.5472,54.341177 86.39562,14.991801 Z"
       id="path9444" />
    <path
       style="fill:#ff0000;stroke:#000000;stroke-width:1;stroke-dasharray:4, 1"
       d="M 133.10708,53.575706 131.55813,4.318364 98.111269,1.5333455 Z"
       id="path9446" />
    <path
       style="fill:#0000ff;stroke:#000000;stroke-width:1;stroke-dasharray:4, 1"
       d="m 134.38346,55.621298 71.51149,35.897737 -2.14307,-35.647301 z"
       id="path9448" />
    <path
       style="fill:#784421;stroke:#000000;stroke-width:1;stroke-dasharray:4, 1"
       d="m 139.51113,50.813898 63.91465,1.819352 1.49949,-50.047569 -15.41231,39.858404 z"
       id="path9450" />
    <path
       style="fill:#000000;stroke:#000000;stroke-width:1;stroke-dasharray:4, 1"
       d="M 137.6481,49.289477 137.35428,6.0070264 160.50837,44.568662 Z"
       id="path9452" />
    <path
       style="fill:#000000;stroke:#000000;stroke-width:1;stroke-dasharray:4, 1"
       d="M 163.32037,41.357338 187.94407,40.14308 160.30611,2.8832714 139.56727,2.6928582 Z"
       id="path9454" />
    <path
       style="fill:#000000;stroke:#000000;stroke-width:1;stroke-dasharray:4, 1"
       d="M 188.9876,34.767017 163.68144,1.7406205 202.47775,1.5665542 177.83056,7.7338745 Z"
       id="path9456" />
    <path
       style="fill:#000000;stroke:#000000;stroke-width:1;stroke-dasharray:4, 1"
       d="M 191.53471,31.539217 202.65329,3.7319788 183.27971,9.8630871 Z"
       id="path9458" />
    <path
       style="fill:#8800aa;stroke:#000000;stroke-width:1;stroke-dasharray:4, 1"
       d="m 131.85929,295.2006 74.92464,-1.87101 -39.5502,-15.3335 z"
       id="path9460" />
    <path
       style="fill:#550000;stroke:#000000;stroke-width:1;stroke-dasharray:4, 1"
       d="m 171.51179,274.34243 35.43788,14.45348 1.08269,-77.64559 -6.03365,52.98076 -8.63771,9.66173 -15.721,-5.29153 z"
       id="path9462" />
    <path
       style="fill:#808000;stroke:#000000;stroke-width:1;stroke-dasharray:4, 1"
       d="m 178.72657,266.29521 13.60106,3.68774 6.40992,-7.49179 6.50531,-48.67422 z"
       id="path9464" />
    <path
       style="fill:#aca793;stroke:#000000;stroke-width:1;stroke-dasharray:4, 1"
       d="M 1.7911092,295.85629 129.69725,295.51278 2.6324048,283.52321 Z"
       id="path9520" />
  </g>
</svg>
