<?xml version='1.0' encoding='UTF-8' standalone='no'?>
<svg xmlns="http://www.w3.org/2000/svg" xmlns:cc="http://creativecommons.org/ns#" xmlns:rdf="http://www.w3.org/1999/02/22-rdf-syntax-ns#" width="420mm" xmlns:xlink="http://www.w3.org/1999/xlink" xmlns:inkscape="http://www.inkscape.org/namespaces/inkscape" version="1.2" baseProfile="tiny" xmlns:dc="http://purl.org/dc/elements/1.1/" xmlns:freecad="https://www.freecad.org/wiki/index.php?title=Svg_Namespace" xmlns:svg="http://www.w3.org/2000/svg" xmlns:sodipodi="http://sodipodi.sourceforge.net/DTD/sodipodi-0.dtd" height="297mm" viewBox="0 0 4200 2970">
 <title>FreeCAD SVG Export</title>
 <desc>Drawing page: Page001 exported from FreeCAD document: Unnamed1</desc>
 <defs/>
 <g inkscape:label="TechDraw" id="Page001" inkscape:groupmode="layer">
  <g transform="scale(10.000000, 10.000000)" style="stroke: none;" id="A3_Landscape_ISO5457_minimal.svg">
   <title id="title">Drawing sheet ISO 5457 - A3T - Minimal</title>
   <metadata id="metadata">
    <rdf:RDF>
     <cc:Work rdf:about="">
      <cc:license rdf:resource="http://creativecommons.org/publicdomain/zero/1.0/"/>
      <dc:title>Drawing sheet ISO 5457 - A3T - Minimal</dc:title>
      <dc:creator>
       <cc:Agent>
        <dc:title>Benjamin May</dc:title>
       </cc:Agent>
      </dc:creator>
     </cc:Work>
     <cc:License rdf:about="http://creativecommons.org/publicdomain/zero/1.0/">
      <cc:permits rdf:resource="http://creativecommons.org/ns#Reproduction"/>
      <cc:permits rdf:resource="http://creativecommons.org/ns#Distribution"/>
      <cc:permits rdf:resource="http://creativecommons.org/ns#DerivativeWorks"/>
     </cc:License>
    </rdf:RDF>
   </metadata>
   <rect y="10" width="390" style="fill:none;stroke:#000000;stroke-width:0.7;stroke-linecap:round;stroke-linejoin:round" id="drawing_space_frame" x="20" height="277"/>
   <g style="fill:none;stroke:#000000;stroke-width:0.7;stroke-linecap:round" id="centring_marks">
    <path d="m 210,5 v 10" id="top_centering"/>
    <path d="m 415,148.5 h -10" id="right_centering"/>
    <path d="m 210,292 v -10" id="bottom_centering"/>
    <path d="m 15,148.5 h 10" id="left_centering"/>
   </g>
   <g id="grid_reference_system">
    <g style="fill:none;stroke:#000000;stroke-width:0.35;stroke-linecap:round;stroke-linejoin:round" id="grid_reference_borders">
     <rect y="5" width="400" id="grid_reference_border" x="15" height="287"/>
     <path d="m 60,5 v 5" id="upper_border_1"/>
     <path d="m 110,5 v 5" id="upper_border_2"/>
     <path d="m 160,5 v 5" id="upper_border_3"/>
     <path d="m 260,5 v 5" id="upper_border_5"/>
     <path d="m 310,5 v 5" id="upper_border_6"/>
     <path d="m 360,5 v 5" id="upper_border_7"/>
     <path d="m 415,48.5 h -5" id="right_border_1"/>
     <path d="m 415,98.5 h -5" id="right_border_2"/>
     <path d="m 415,198.5 h -5" id="right_border_4"/>
     <path d="m 415,248.5 h -5" id="right_border_5"/>
     <path d="m 60,292 v -5" id="lower_border_1"/>
     <path d="m 110,292 v -5" id="lower_border_2"/>
     <path d="m 160,292 v -5" id="lower_border_3"/>
     <path d="m 260,292 v -5" id="lower_border_5"/>
     <path d="m 310,292 v -5" id="lower_border_6"/>
     <path d="m 360,292 v -5" id="lower_border_7"/>
     <path d="m 15,48.5 h 5" id="left_border_1"/>
     <path d="m 15,98.5 h 5" id="left_border_2"/>
     <path d="m 15,198.5 h 5" id="left_border_4"/>
     <path d="m 15,248.5 h 5" id="left_border_5"/>
    </g>
    <g style="font-size:3.5px;font-family:osifont;text-align:center;text-anchor:middle;fill:#000000;stroke:none" id="grid_reference_markers">
     <text y="8.8" id="upper_marker_1" x="35">1</text>
     <text y="8.8" id="upper_marker_2" x="85">2</text>
     <text y="8.8" id="upper_marker_3" x="135">3</text>
     <text y="8.8" id="upper_marker_4" x="185">4</text>
     <text y="8.8" id="upper_marker_5" x="235">5</text>
     <text y="8.8" id="upper_marker_6" x="285">6</text>
     <text y="8.8" id="upper_marker_7" x="335">7</text>
     <text y="8.8" id="upper_marker_8" x="385">8</text>
     <text y="24.8" id="right_marker_1" x="412.5">A</text>
     <text y="74.8" id="right_marker_2" x="412.5">B</text>
     <text y="124.8" id="right_marker_3" x="412.5">C</text>
     <text y="174.8" id="right_marker_4" x="412.5">D</text>
     <text y="224.8" id="right_marker_5" x="412.5">E</text>
     <text y="274.8" id="right_marker_6" x="412.5">F</text>
     <text y="290.8" id="lower_marker_1" x="35">1</text>
     <text y="290.8" id="lower_marker_2" x="85">2</text>
     <text y="290.8" id="lower_marker_3" x="135">3</text>
     <text y="290.8" id="lower_marker_4" x="185">4</text>
     <text y="290.8" id="lower_marker_5" x="235">5</text>
     <text y="290.8" id="lower_marker_6" x="285">6</text>
     <text y="290.8" id="lower_marker_7" x="335">7</text>
     <text y="290.8" id="lower_marker_8" x="385">A3</text>
     <text y="24.8" id="left_marker_1" x="17.5">A</text>
     <text y="74.8" id="left_marker_2" x="17.5">B</text>
     <text y="124.8" id="left_marker_3" x="17.5">C</text>
     <text y="174.8" id="left_marker_4" x="17.5">D</text>
     <text y="224.8" id="left_marker_5" x="17.5">E</text>
     <text y="274.8" id="left_marker_6" x="17.5">F</text>
    </g>
   </g>
   <g style="fill:#000000;stroke:none" id="trimming_marks">>
    <path d="m 0,0 h 10 v 5 h -5 v 5 h -5 z" id="top_left_trimming"/>
    <path d="m 420,0 h -10 v 5 h 5 v 5 h 5 z" id="top_right_trimming"/>
    <path d="m 420,297 h -10 v -5 h 5 v -5 h 5 z" id="bottom_right_trimming"/>
    <path d="m 0,297 h 10 v -5 h -5 v -5 h -5 z" id="bottom_left_trimming"/>
   </g>
   <!-- Title block -->
   <g style="fill:none;stroke:#000000;stroke-width:0.35;stroke-linecap:round;stroke-linejoin:round" id="title_block_borders">
    <rect y="251" width="180" style="stroke-width:0.7" id="title_block_frame" x="230" height="36"/>
    <rect y="251" width="40" id="legal_owner_border" x="370" height="24"/>
    <rect y="275" width="80" id="identification_number_border" x="230" height="12"/>
    <rect y="275" width="20" id="revision_index_border" x="370" height="12"/>
    <rect y="275" width="40" id="date_of_issue_border" x="330" height="12"/>
    <rect y="275" width="20" id="sheet_number_border" x="390" height="12"/>
    <rect y="275" width="20" id="language_code_border" x="310" height="12"/>
    <rect y="251" width="80" id="title_border" x="230" height="12"/>
    <rect y="263" width="60" id="approval_person_border" x="310" height="12"/>
    <rect y="251" width="60" id="creator_border" x="310" height="12"/>
    <rect y="263" width="80" id="document_type_border" x="230" height="12"/>
   </g>
   <g style="font-size:3.5px;font-family:osifont;text-anchor:start;fill:#000000;stroke:none" id="title_block_labels">
    <text y="254.6" id="legal_owner label" x="370.5">Owner:</text>
    <text y="278.6" id="identification_number_label" x="230.5">Drawing number:</text>
    <text y="278.6" id="revision_index_label" x="370.5">Revision:</text>
    <text y="278.6" id="date_of_issue_label" x="330.5">Issue date:</text>
    <text y="278.6" id="sheet_number_label" x="390.5">Sheet:</text>
    <text y="278.6" id="language_code_label" x="310.5">Language:</text>
    <text y="254.6" id="title_label" x="230.5">Title:</text>
    <text y="266.6" id="approval_person_label" x="310.5">Approved by:</text>
    <text y="254.6" id="creator_label" x="310.5">Created by:</text>
    <text y="266.6" id="document_type_label" x="230.5">Document type:</text>
    <text y="242.6" id="sheet_scale_label" x="350.5">Scale:</text>
    <text y="242.6" id="general_tolerances_label" x="310.5">General tolerances:</text>
    <text y="242.6" id="part_material_label" x="230.5">Part Material:</text>
   </g>
   <g style="font-size:5px;font-family:osifont;text-anchor:start;fill:#000000;stroke:none" id="title_block_data_fields">
    <text y="260.1" freecad:autofill="organization" style="font-size:3.5px;text-align:center;text-anchor:middle" id="legal_owner_1_data_field" freecad:editable="legal_owner_1" x="390">
     <tspan xml:space="preserve"/>
    </text>
    <text y="264.1" style="font-size:3.5px;text-align:center;text-anchor:middle" id="legal_owner_2_data_field" freecad:editable="legal_owner_2" x="390">
     <tspan xml:space="preserve"/>
    </text>
    <text y="268.1" style="font-size:3.5px;text-align:center;text-anchor:middle" id="legal_owner_3_data_field" freecad:editable="legal_owner_3" x="390">
     <tspan xml:space="preserve"/>
    </text>
    <text y="272.1" style="font-size:3.5px;text-align:center;text-anchor:middle" id="legal_owner_4_data_field" freecad:editable="legal_owner_4" x="390">
     <tspan xml:space="preserve"/>
    </text>
    <text y="284.2" id="identification_number_data_field" freecad:editable="identification_number" x="231">
     <tspan xml:space="preserve">DN</tspan>
    </text>
    <text y="284.2" style="text-align:center;text-anchor:middle" id="revision_index_data_field" freecad:editable="revision_index" x="380">
     <tspan xml:space="preserve">AAA</tspan>
    </text>
    <text y="284.2" freecad:autofill="date" id="date_of_issue_data_field" freecad:editable="date_of_issue" x="331">
     <tspan xml:space="preserve">10/7/24</tspan>
    </text>
    <text y="284.2" freecad:autofill="sheet" style="text-align:center;text-anchor:middle" id="sheet_number_data_field" freecad:editable="sheet_number" x="400">
     <tspan xml:space="preserve">2 / 2</tspan>
    </text>
    <text y="284.2" style="text-align:center;text-anchor:middle" id="language_code_data_field" freecad:editable="language_code" x="320">
     <tspan xml:space="preserve">EN</tspan>
    </text>
    <text y="260.2" freecad:autofill="title" id="title_data_field" freecad:editable="title" x="231">
     <tspan xml:space="preserve">ejemplo_1_planos</tspan>
    </text>
    <text y="272.2" id="approval_person_data_field" freecad:editable="approval_person" x="311">
     <tspan xml:space="preserve">B. Hecate</tspan>
    </text>
    <text y="260.2" freecad:autofill="author" id="creator_data_field" freecad:editable="creator" x="311">
     <tspan xml:space="preserve">A. Nemesis</tspan>
    </text>
    <text y="272.2" id="document_type_data_field" freecad:editable="document_type" x="231">
     <tspan xml:space="preserve">Assembly Drawing</tspan>
    </text>
    <text y="248.2" freecad:autofill="scale" style="text-align:center;text-anchor:middle" id="sheet_scale_data_field" freecad:editable="sheet_scale" x="360">
     <tspan xml:space="preserve">1 : 1</tspan>
    </text>
    <text y="248.2" id="general_tolerances_data_field" freecad:editable="general_tolerances" x="311">
     <tspan xml:space="preserve">ISO 2768-m</tspan>
    </text>
    <text y="248.2" id="part_material_data_field" freecad:editable="part_material" x="231">
     <tspan xml:space="preserve">Stainless steel Mat.No. 1.4301</tspan>
    </text>
   </g>
   <g style="fill:none;stroke:#000000;stroke-width:0.5;stroke-linecap:round;stroke-linejoin:round" id="extras_outlines">
    <path d="m 389,234 -10,2.5 v 5 l 10,2.5 z" id="first_angle_trapezoid"/>
    <circle cx="396" r="2.5" cy="239" id="first_angle_inner circle"/>
    <circle cx="396" r="5" cy="239" id="first_angle_outer circle"/>
   </g>
   <g style="fill:none;stroke:#000000;stroke-width:0.25;stroke-linecap:round;stroke-linejoin:round;stroke-dasharray:6, 0.75, 0.125, 0.75" id="extras_centre_lines">
    <path d="m 378,239 h 24" style="stroke-dashoffset:0.25" id="first_angle_horizontal"/>
    <path d="m 396,245 v -12" style="stroke-dashoffset:4.625" id="first_angle_vertical"/>
   </g>
  </g>
  <g stroke-linecap="square" fill="none" fill-rule="evenodd" id="DrawingContent" stroke="black" stroke-width="1" stroke-linejoin="bevel">
   <g font-weight="400" transform="matrix(1,0,0,1,2100,1485)" fill="#f1f3f5" fill-opacity="0" font-size="31.75" stroke="none" font-style="normal" font-family="Sans Serif">
    <path d="M-350,0 L-350,-200 L350,-200 L350,0 L50,0 L50,200 L-150,200 L-150,0 L-350,0" fill-rule="evenodd" vector-effect="non-scaling-stroke"/>
   </g>
   <g font-weight="400" stroke-linecap="round" transform="matrix(1,0,0,1,2100,1485)" fill="none" stroke-opacity="1" font-size="31.75" stroke="#000000" stroke-width="7" font-style="normal" stroke-linejoin="bevel" font-family="Sans Serif">
    <path d="M-350,0 L-350,-200" fill-rule="evenodd" vector-effect="none"/>
   </g>
   <g font-weight="400" stroke-linecap="round" transform="matrix(1,0,0,1,2100,1485)" fill="none" stroke-opacity="1" font-size="31.75" stroke="#000000" stroke-width="7" font-style="normal" stroke-linejoin="bevel" font-family="Sans Serif">
    <path d="M-350,-200 L350,-200" fill-rule="evenodd" vector-effect="none"/>
   </g>
   <g font-weight="400" stroke-linecap="round" transform="matrix(1,0,0,1,2100,1485)" fill="none" stroke-opacity="1" font-size="31.75" stroke="#000000" stroke-width="7" font-style="normal" stroke-linejoin="bevel" font-family="Sans Serif">
    <path d="M350,-200 L350,0" fill-rule="evenodd" vector-effect="none"/>
   </g>
   <g font-weight="400" stroke-linecap="round" transform="matrix(1,0,0,1,2100,1485)" fill="none" stroke-opacity="1" font-size="31.75" stroke="#000000" stroke-width="7" font-style="normal" stroke-linejoin="bevel" font-family="Sans Serif">
    <path d="M350,0 L50,0" fill-rule="evenodd" vector-effect="none"/>
   </g>
   <g font-weight="400" stroke-linecap="round" transform="matrix(1,0,0,1,2100,1485)" fill="none" stroke-opacity="1" font-size="31.75" stroke="#000000" stroke-width="7" font-style="normal" stroke-linejoin="bevel" font-family="Sans Serif">
    <path d="M50,0 L50,200" fill-rule="evenodd" vector-effect="none"/>
   </g>
   <g font-weight="400" stroke-linecap="round" transform="matrix(1,0,0,1,2100,1485)" fill="none" stroke-opacity="1" font-size="31.75" stroke="#000000" stroke-width="7" font-style="normal" stroke-linejoin="bevel" font-family="Sans Serif">
    <path d="M50,200 L-150,200" fill-rule="evenodd" vector-effect="none"/>
   </g>
   <g font-weight="400" stroke-linecap="round" transform="matrix(1,0,0,1,2100,1485)" fill="none" stroke-opacity="1" font-size="31.75" stroke="#000000" stroke-width="7" font-style="normal" stroke-linejoin="bevel" font-family="Sans Serif">
    <path d="M-150,200 L-150,0" fill-rule="evenodd" vector-effect="none"/>
   </g>
   <g font-weight="400" stroke-linecap="round" transform="matrix(1,0,0,1,2100,1485)" fill="none" stroke-opacity="1" font-size="31.75" stroke="#000000" stroke-width="7" font-style="normal" stroke-linejoin="bevel" font-family="Sans Serif">
    <path d="M-150,0 L-350,0" fill-rule="evenodd" vector-effect="none"/>
   </g>
   <g font-weight="400" stroke-linecap="square" transform="matrix(1,0,0,1,2279.91,1960.97)" fill="none" stroke-opacity="1" font-size="31.75" stroke="#212529" stroke-width="1" font-style="normal" stroke-linejoin="bevel" font-family="Sans Serif">
    <text xml:space="preserve" y="93" font-weight="400" fill="#212529" fill-opacity="1" font-size="67" stroke="none" font-style="normal" font-family="osifont" x="4">3</text>
   </g>
   <g font-weight="400" stroke-linecap="round" transform="matrix(1,0,0,1,2100,1485)" fill="none" stroke-opacity="1" font-size="31.75" stroke="#212529" stroke-width="3.5" font-style="normal" stroke-linejoin="bevel" font-family="Sans Serif">
    <path d="M50,586.22 L350,586.22 M350,0 L350,614.22 M50,0 L50,614.22" fill-rule="evenodd" vector-effect="none"/>
   </g>
   <g font-weight="400" stroke-linecap="round" transform="matrix(1,0,0,1,2450,2071.22)" fill="#212529" stroke-opacity="1" fill-opacity="1" font-size="31.75" stroke="#212529" stroke-width="3.5" font-style="normal" stroke-linejoin="bevel" font-family="Sans Serif">
    <path d="M0,0 L-35,-5.83333 L-35,5.83333 L0,0" fill-rule="evenodd" vector-effect="none"/>
   </g>
   <g font-weight="400" stroke-linecap="round" transform="matrix(1,0,0,1,2150,2071.22)" fill="#212529" stroke-opacity="1" fill-opacity="1" font-size="31.75" stroke="#212529" stroke-width="3.5" font-style="normal" stroke-linejoin="bevel" font-family="Sans Serif">
    <path d="M0,0 L35,5.83333 L35,-5.83333 L0,0" fill-rule="evenodd" vector-effect="none"/>
   </g>
   <g font-weight="400" stroke-linecap="square" transform="matrix(1,0,0,1,2079.99,1057.56)" fill="none" stroke-opacity="1" font-size="31.75" stroke="#212529" stroke-width="1" font-style="normal" stroke-linejoin="bevel" font-family="Sans Serif">
    <text xml:space="preserve" y="93" font-weight="400" fill="#212529" fill-opacity="1" font-size="67" stroke="none" font-style="normal" font-family="osifont" x="4">7</text>
   </g>
   <g font-weight="400" stroke-linecap="round" transform="matrix(1,0,0,1,2100,1485)" fill="none" stroke-opacity="1" font-size="31.75" stroke="#212529" stroke-width="3.5" font-style="normal" stroke-linejoin="bevel" font-family="Sans Serif">
    <path d="M-350,-317.192 L350,-317.192 M350,-200 L350,-345.192 M-350,-200 L-350,-345.192" fill-rule="evenodd" vector-effect="none"/>
   </g>
   <g font-weight="400" stroke-linecap="round" transform="matrix(1,0,0,1,2450,1167.81)" fill="#212529" stroke-opacity="1" fill-opacity="1" font-size="31.75" stroke="#212529" stroke-width="3.5" font-style="normal" stroke-linejoin="bevel" font-family="Sans Serif">
    <path d="M0,0 L-35,-5.83333 L-35,5.83333 L0,0" fill-rule="evenodd" vector-effect="none"/>
   </g>
   <g font-weight="400" stroke-linecap="round" transform="matrix(1,0,0,1,1750,1167.81)" fill="#212529" stroke-opacity="1" fill-opacity="1" font-size="31.75" stroke="#212529" stroke-width="3.5" font-style="normal" stroke-linejoin="bevel" font-family="Sans Serif">
    <path d="M0,0 L35,5.83333 L35,-5.83333 L0,0" fill-rule="evenodd" vector-effect="none"/>
   </g>
   <g font-weight="400" stroke-linecap="square" transform="matrix(0,-1,1,0,2568.39,1404.62)" fill="none" stroke-opacity="1" font-size="31.75" stroke="#212529" stroke-width="1" font-style="normal" stroke-linejoin="bevel" font-family="Sans Serif">
    <text xml:space="preserve" y="93" font-weight="400" fill="#212529" fill-opacity="1" font-size="67" stroke="none" font-style="normal" font-family="osifont" x="4">2</text>
   </g>
   <g font-weight="400" stroke-linecap="round" transform="matrix(1,0,0,1,2100,1485)" fill="none" stroke-opacity="1" font-size="31.75" stroke="#212529" stroke-width="3.5" font-style="normal" stroke-linejoin="bevel" font-family="Sans Serif">
    <path d="M578.645,0 L578.645,-200 M350,-200 L606.645,-200 M350,0 L606.645,1.99389e-14" fill-rule="evenodd" vector-effect="none"/>
   </g>
   <g font-weight="400" stroke-linecap="round" transform="matrix(1,0,0,1,2678.64,1285)" fill="#212529" stroke-opacity="1" fill-opacity="1" font-size="31.75" stroke="#212529" stroke-width="3.5" font-style="normal" stroke-linejoin="bevel" font-family="Sans Serif">
    <path d="M0,0 L-5.83333,35 L5.83333,35 L0,0" fill-rule="evenodd" vector-effect="none"/>
   </g>
   <g font-weight="400" stroke-linecap="round" transform="matrix(1,0,0,1,2678.64,1485)" fill="#212529" stroke-opacity="1" fill-opacity="1" font-size="31.75" stroke="#212529" stroke-width="3.5" font-style="normal" stroke-linejoin="bevel" font-family="Sans Serif">
    <path d="M0,0 L5.83333,-35 L-5.83333,-35 L0,0" fill-rule="evenodd" vector-effect="none"/>
   </g>
   <g font-weight="400" stroke-linecap="square" transform="matrix(0,-1,1,0,1417.6,1506.19)" fill="none" stroke-opacity="1" font-size="31.75" stroke="#212529" stroke-width="1" font-style="normal" stroke-linejoin="bevel" font-family="Sans Serif">
    <text xml:space="preserve" y="93" font-weight="400" fill="#212529" fill-opacity="1" font-size="67" stroke="none" font-style="normal" font-family="osifont" x="4">4</text>
   </g>
   <g font-weight="400" stroke-linecap="round" transform="matrix(1,0,0,1,2100,1485)" fill="none" stroke-opacity="1" font-size="31.75" stroke="#212529" stroke-width="3.5" font-style="normal" stroke-linejoin="bevel" font-family="Sans Serif">
    <path d="M-572.154,200 L-572.154,-200 M-350,-200 L-600.154,-200 M-150,200 L-600.154,200" fill-rule="evenodd" vector-effect="none"/>
   </g>
   <g font-weight="400" stroke-linecap="round" transform="matrix(1,0,0,1,1527.85,1285)" fill="#212529" stroke-opacity="1" fill-opacity="1" font-size="31.75" stroke="#212529" stroke-width="3.5" font-style="normal" stroke-linejoin="bevel" font-family="Sans Serif">
    <path d="M0,0 L-5.83333,35 L5.83333,35 L0,0" fill-rule="evenodd" vector-effect="none"/>
   </g>
   <g font-weight="400" stroke-linecap="round" transform="matrix(1,0,0,1,1527.85,1685)" fill="#212529" stroke-opacity="1" fill-opacity="1" font-size="31.75" stroke="#212529" stroke-width="3.5" font-style="normal" stroke-linejoin="bevel" font-family="Sans Serif">
    <path d="M0,0 L5.83333,-35 L-5.83333,-35 L0,0" fill-rule="evenodd" vector-effect="none"/>
   </g>
   <g font-weight="400" stroke-linecap="square" transform="matrix(1,0,0,1,2030.38,1960.97)" fill="none" stroke-opacity="1" font-size="31.75" stroke="#212529" stroke-width="1" font-style="normal" stroke-linejoin="bevel" font-family="Sans Serif">
    <text xml:space="preserve" y="93" font-weight="400" fill="#212529" fill-opacity="1" font-size="67" stroke="none" font-style="normal" font-family="osifont" x="4">2</text>
   </g>
   <g font-weight="400" stroke-linecap="round" transform="matrix(1,0,0,1,2100,1485)" fill="none" stroke-opacity="1" font-size="31.75" stroke="#212529" stroke-width="3.5" font-style="normal" stroke-linejoin="bevel" font-family="Sans Serif">
    <path d="M-150,586.22 L50,586.22 M50,200 L50,614.22 M-150,200 L-150,614.22" fill-rule="evenodd" vector-effect="none"/>
   </g>
   <g font-weight="400" stroke-linecap="round" transform="matrix(1,0,0,1,2150,2071.22)" fill="#212529" stroke-opacity="1" fill-opacity="1" font-size="31.75" stroke="#212529" stroke-width="3.5" font-style="normal" stroke-linejoin="bevel" font-family="Sans Serif">
    <path d="M0,0 L-35,-5.83333 L-35,5.83333 L0,0" fill-rule="evenodd" vector-effect="none"/>
   </g>
   <g font-weight="400" stroke-linecap="round" transform="matrix(1,0,0,1,1950,2071.22)" fill="#212529" stroke-opacity="1" fill-opacity="1" font-size="31.75" stroke="#212529" stroke-width="3.5" font-style="normal" stroke-linejoin="bevel" font-family="Sans Serif">
    <path d="M0,0 L35,5.83333 L35,-5.83333 L0,0" fill-rule="evenodd" vector-effect="none"/>
   </g>
  </g>
 </g>
</svg>
