<?xml version="1.0" encoding="UTF-8" standalone="no"?>
<!-- Created with Inkscape (http://www.inkscape.org/) -->

<svg
   width="94.908791mm"
   height="75.729271mm"
   viewBox="0 0 94.908791 75.729271"
   version="1.1"
   id="svg32908"
   inkscape:version="1.2.2 (b0a8486541, 2022-12-01)"
   sodipodi:docname="modelo_pinza_freecad.svg"
   xmlns:inkscape="http://www.inkscape.org/namespaces/inkscape"
   xmlns:sodipodi="http://sodipodi.sourceforge.net/DTD/sodipodi-0.dtd"
   xmlns="http://www.w3.org/2000/svg"
   xmlns:svg="http://www.w3.org/2000/svg">
  <sodipodi:namedview
     id="namedview32910"
     pagecolor="#ffffff"
     bordercolor="#000000"
     borderopacity="0.25"
     inkscape:showpageshadow="2"
     inkscape:pageopacity="0.0"
     inkscape:pagecheckerboard="0"
     inkscape:deskcolor="#d1d1d1"
     inkscape:document-units="mm"
     showgrid="false"
     inkscape:zoom="0.2102413"
     inkscape:cx="159.34072"
     inkscape:cy="147.44962"
     inkscape:window-width="1920"
     inkscape:window-height="1011"
     inkscape:window-x="0"
     inkscape:window-y="32"
     inkscape:window-maximized="1"
     inkscape:current-layer="layer1" />
  <defs
     id="defs32905" />
  <g
     inkscape:label="Layer 1"
     inkscape:groupmode="layer"
     id="layer1"
     transform="translate(-62.876971,-109.82754)">
    <rect
       style="fill:#ffffff;fill-opacity:1;stroke:#000000;stroke-width:0.0791187"
       id="rect32903"
       width="94.829674"
       height="75.650154"
       x="62.916531"
       y="109.8671"
       rx="0.040418174"
       ry="1.9289892" />
    <path
       id="path31418"
       style="display:inline;fill:none;fill-opacity:1;stroke:#000000;stroke-width:0.261997"
       d="m 137.91986,116.65123 a 7.3990102,7.2456474 0 0 0 -7.36079,7.04557 h -0.006 v 0.16174 a 7.3990102,7.2456474 0 0 0 -0.002,0.0584 7.3990102,7.2456474 0 0 0 0.002,0.0501 v 37.4556 H 80.366256 v 0.0749 a 7.4794765,7.1558127 0 0 0 -6.99027,7.15719 7.4794765,7.1558127 0 0 0 6.99027,7.11894 v 0.0486 h 57.606834 v -0.0574 a 7.2469897,7.2469897 0 0 0 0.0889,0.003 7.2469897,7.2469897 0 0 0 7.23367,-7.16132 h 0.045 v -44.47998 a 7.3990102,7.2456474 0 0 0 0.009,-0.22996 v -0.0398 a 7.3990102,7.2456474 0 0 0 -7.42952,-7.20576 z" />
    <path
       id="path31418-9-2"
       style="display:inline;fill:none;fill-opacity:1;stroke:#000000;stroke-width:0.262215"
       d="m 94.976216,116.59594 -0.0698,0.0739 h -0.016 v 0.017 l -20.52794,21.74389 c -0.0149,0.0158 0.46409,0.41735 1.24592,1.05007 l -1.30845,-0.98134 -4.22248,25.99273 10.15597,-4.44159 3.27887,-14.40067 c 0.0789,0.0547 0.13269,0.0892 0.13694,0.0848 l 13.67152,-14.48181 h 41.147874 v -0.11058 a 7.3990102,7.2456474 0 0 0 6.89467,-7.22644 v -0.0398 a 7.3990102,7.2456474 0 0 0 -6.89467,-7.1887 v -0.0176 H 95.097636 c -0.0714,-0.0492 -0.11741,-0.0782 -0.12144,-0.0739 z" />
  </g>
</svg>
