
CASCADE Topology V1, (c) Matra-Datavision
Locations 11
1
1.000000000000000 0.000000000000000 0.000000000000000 0.000000000000000 
0.000000000000000 1.000000000000000 0.000000000000000 0.000000000000000 
0.000000000000000 0.000000000000000 1.000000000000000 0.000000000000000 
1
1.000000000000000 0.000000000000000 0.000000000000000 0.000000000000000 
0.000000000000000 1.000000000000000 0.000000000000000 0.000000000000000 
0.000000000000000 0.000000000000000 1.000000000000000 0.000000000000000 
1
1.000000000000000 0.000000000000000 0.000000000000000 25.000000000000000 
0.000000000000000 1.000000000000000 0.000000000000000 25.000000000000000 
0.000000000000000 0.000000000000000 1.000000000000000 0.000000000000000 
2  2 1 3 1 0
1
1.000000000000000 0.000000000000000 0.000000000000000 0.000000000000000 
0.000000000000000 1.000000000000000 0.000000000000000 0.000000000000000 
0.000000000000000 0.000000000000000 1.000000000000000 0.000000000000000 
1
1.000000000000000 0.000000000000000 0.000000000000000 30.000000000000000 
0.000000000000000 1.000000000000000 0.000000000000000 30.000000000000000 
0.000000000000000 0.000000000000000 1.000000000000000 0.000000000000000 
2  5 1 6 1 0
1
1.000000000000000 0.000000000000000 0.000000000000000 0.000000000000000 
0.000000000000000 1.000000000000000 0.000000000000000 0.000000000000000 
0.000000000000000 0.000000000000000 1.000000000000000 10.000000000000000 
2  8 -1 0
2  2 1 3 1 6 -1 5 -1 0
2  6 -1 5 -1 0
Curve2ds 32
1 0.00000000000000000 0.00000000000000000 1.00000000000000000 0.00000000000000000 
1 0.00000000000000000 0.00000000000000000 1.00000000000000000 0.00000000000000000 
1 3.00000000000000000 0.00000000000000000 0.00000000000000000 -1.00000000000000000 
1 0.00000000000000000 0.00000000000000000 0.00000000000000000 1.00000000000000000 
1 0.00000000000000000 -10.00000000000000000 1.00000000000000000 0.00000000000000000 
1 0.00000000000000000 0.00000000000000000 1.00000000000000000 0.00000000000000000 
1 0.00000000000000000 0.00000000000000000 0.00000000000000000 -1.00000000000000000 
1 0.00000000000000000 0.00000000000000000 0.00000000000000000 1.00000000000000000 
1 0.00000000000000000 0.00000000000000000 0.00000000000000000 1.00000000000000000 
1 0.00000000000000000 0.00000000000000000 1.00000000000000000 0.00000000000000000 
1 0.00000000000000000 0.00000000000000000 1.00000000000000000 0.00000000000000000 
1 0.00000000000000000 30.00000000000000000 1.00000000000000000 0.00000000000000000 
1 3.00000000000000000 0.00000000000000000 0.00000000000000000 1.00000000000000000 
1 0.00000000000000000 0.00000000000000000 1.00000000000000000 0.00000000000000000 
1 3.00000000000000000 0.00000000000000000 0.00000000000000000 1.00000000000000000 
1 0.00000000000000000 10.00000000000000000 1.00000000000000000 0.00000000000000000 
1 3.00000000000000000 0.00000000000000000 0.00000000000000000 -1.00000000000000000 
1 30.00000000000000000 0.00000000000000000 0.00000000000000000 1.00000000000000000 
2 5.00000000000000000 5.00000000000000000 1.00000000000000000 0.00000000000000000 0.00000000000000000 -1.00000000000000000 1.50000000000000000
1 6.28318530717958623 -3.00000000000000000 -1.00000000000000000 0.00000000000000000 
1 0.00000000000000000 0.00000000000000000 0.00000000000000000 1.00000000000000000 
1 0.00000000000000000 10.00000000000000000 1.00000000000000000 0.00000000000000000 
1 0.00000000000000000 -10.00000000000000000 1.00000000000000000 0.00000000000000000 
1 0.00000000000000000 30.00000000000000000 1.00000000000000000 0.00000000000000000 
1 0.00000000000000000 0.00000000000000000 0.00000000000000000 -1.00000000000000000 
1 30.00000000000000000 0.00000000000000000 0.00000000000000000 1.00000000000000000 
2 0.00000000000000000 0.00000000000000000 1.00000000000000000 0.00000000000000000 -0.00000000000000000 1.00000000000000000 1.50000000000000000
1 0.00000000000000000 0.00000000000000000 1.00000000000000000 0.00000000000000000 
1 0.00000000000000000 -10.00000000000000000 1.00000000000000000 0.00000000000000000 
2 5.00000000000000000 5.00000000000000000 1.00000000000000000 0.00000000000000000 -0.00000000000000000 1.00000000000000000 1.50000000000000000
1 0.00000000000000000 0.00000000000000000 0.00000000000000000 -1.00000000000000000 
1 6.28318530717958623 0.00000000000000000 0.00000000000000000 -1.00000000000000000 
Curves 15
1 0.00000000000000000 0.00000000000000000 0.00000000000000000 0.00000000000000000 0.00000000000000000 1.00000000000000000 
1 0.00000000000000000 0.00000000000000000 3.00000000000000000 -0.00000000000000000 1.00000000000000000 0.00000000000000000 
1 0.00000000000000000 10.00000000000000000 0.00000000000000000 0.00000000000000000 0.00000000000000000 1.00000000000000000 
1 0.00000000000000000 0.00000000000000000 0.00000000000000000 -0.00000000000000000 1.00000000000000000 0.00000000000000000 
1 0.00000000000000000 0.00000000000000000 0.00000000000000000 1.00000000000000000 0.00000000000000000 -0.00000000000000000 
1 30.00000000000000000 0.00000000000000000 0.00000000000000000 0.00000000000000000 0.00000000000000000 1.00000000000000000 
1 0.00000000000000000 0.00000000000000000 3.00000000000000000 1.00000000000000000 0.00000000000000000 -0.00000000000000000 
1 0.00000000000000000 10.00000000000000000 3.00000000000000000 1.00000000000000000 0.00000000000000000 -0.00000000000000000 
1 30.00000000000000000 0.00000000000000000 3.00000000000000000 -0.00000000000000000 1.00000000000000000 0.00000000000000000 
2 30.00000000000000000 30.00000000000000000 3.00000000000000000 0.00000000000000000 0.00000000000000000 -1.00000000000000000 1.00000000000000000 0.00000000000000000 0.00000000000000000 0.00000000000000000 -1.00000000000000000 0.00000000000000000 1.50000000000000000
1 0.00000000000000000 10.00000000000000000 0.00000000000000000 1.00000000000000000 0.00000000000000000 -0.00000000000000000 
1 30.00000000000000000 10.00000000000000000 0.00000000000000000 0.00000000000000000 0.00000000000000000 1.00000000000000000 
1 30.00000000000000000 0.00000000000000000 0.00000000000000000 -0.00000000000000000 1.00000000000000000 0.00000000000000000 
2 0.00000000000000000 0.00000000000000000 0.00000000000000000 0.00000000000000000 0.00000000000000000 1.00000000000000000 1.00000000000000000 0.00000000000000000 -0.00000000000000000 -0.00000000000000000 1.00000000000000000 0.00000000000000000 1.50000000000000000
1 1.50000000000000000 -0.00000000000000037 0.00000000000000000 0.00000000000000000 0.00000000000000000 1.00000000000000000 
Polygon3D 0
PolygonOnTriangulations 0
Surfaces 8
1 0.00000000000000000 0.00000000000000000 0.00000000000000000 1.00000000000000000 0.00000000000000000 -0.00000000000000000 0.00000000000000000 0.00000000000000000 1.00000000000000000 0.00000000000000000 -1.00000000000000000 0.00000000000000000 
1 0.00000000000000000 0.00000000000000000 0.00000000000000000 -0.00000000000000000 1.00000000000000000 0.00000000000000000 0.00000000000000000 0.00000000000000000 1.00000000000000000 1.00000000000000000 0.00000000000000000 -0.00000000000000000 
1 0.00000000000000000 0.00000000000000000 3.00000000000000000 0.00000000000000000 0.00000000000000000 1.00000000000000000 1.00000000000000000 0.00000000000000000 -0.00000000000000000 -0.00000000000000000 1.00000000000000000 0.00000000000000000 
1 0.00000000000000000 10.00000000000000000 0.00000000000000000 -0.00000000000000000 1.00000000000000000 0.00000000000000000 0.00000000000000000 0.00000000000000000 1.00000000000000000 1.00000000000000000 0.00000000000000000 -0.00000000000000000 
1 0.00000000000000000 0.00000000000000000 0.00000000000000000 0.00000000000000000 0.00000000000000000 1.00000000000000000 1.00000000000000000 0.00000000000000000 -0.00000000000000000 -0.00000000000000000 1.00000000000000000 0.00000000000000000 
1 30.00000000000000000 0.00000000000000000 0.00000000000000000 1.00000000000000000 0.00000000000000000 -0.00000000000000000 0.00000000000000000 0.00000000000000000 1.00000000000000000 0.00000000000000000 -1.00000000000000000 0.00000000000000000 
2 0.00000000000000000 0.00000000000000000 0.00000000000000000 -0.00000000000000000 -0.00000000000000000 -1.00000000000000000 1.00000000000000000 0.00000000000000000 -0.00000000000000000 -0.00000000000000000 1.00000000000000000 0.00000000000000000 1.50000000000000000
1 0.00000000000000000 0.00000000000000000 0.00000000000000000 0.00000000000000000 0.00000000000000000 1.00000000000000000 1.00000000000000000 0.00000000000000000 -0.00000000000000000 -0.00000000000000000 1.00000000000000000 0.00000000000000000 
Triangulations 0

TShapes 44
Ve
0.000000100000000
0.000000000000000 0.000000000000000 3.000000000000000
0 0

0101101
*
Ve
0.000000100000000
0.000000000000000 0.000000000000000 0.000000000000000
0 0

0101101
*
Ed
 0.000000100000000 1 1 0
1  1 0 0.000000000000000 3.000000000000000
2  1 1 0 0.000000000000000 3.000000000000000
2  2 2 0 0.000000000000000 3.000000000000000
0

0101000
-44 0 +43 0 *
Ve
0.000000100000000
0.000000000000000 10.000000000000000 3.000000000000000
0 0

0101101
*
Ed
 0.000000100000000 1 1 0
1  2 0 0.000000000000000 10.000000000000000
2  3 1 0 0.000000000000000 10.000000000000000
2  4 3 0 0.000000000000000 10.000000000000000
0

0101000
-41 0 +44 0 *
Ve
0.000000100000000
0.000000000000000 10.000000000000000 0.000000000000000
0 0

0101101
*
Ed
 0.000000100000000 1 1 0
1  3 0 0.000000000000000 3.000000000000000
2  5 1 0 0.000000000000000 3.000000000000000
2  6 4 0 0.000000000000000 3.000000000000000
0

0101000
-41 0 +39 0 *
Ed
 0.000000100000000 1 1 0
1  4 0 0.000000000000000 10.000000000000000
2  7 1 0 0.000000000000000 10.000000000000000
2  8 5 0 0.000000000000000 10.000000000000000
0

0101000
-39 0 +43 0 *
Wi

0101100
-42 0 -40 0 +38 0 +37 0 *
Fa
0  0.000000100000000 1 0

0111000
+36 0 *
Ve
0.000000100000000
30.000000000000000 0.000000000000000 0.000000000000000
0 0

0101101
*
Ed
 0.000000100000000 1 1 0
1  5 0 0.000000000000000 30.000000000000000
2  9 2 0 0.000000000000000 30.000000000000000
2  10 5 0 0.000000000000000 30.000000000000000
0

0101000
-34 0 +43 0 *
Ve
0.000000100000000
30.000000000000000 0.000000000000000 3.000000000000000
0 0

0101101
*
Ed
 0.000000100000000 1 1 0
1  6 0 0.000000000000000 3.000000000000000
2  11 6 0 0.000000000000000 3.000000000000000
2  12 2 0 0.000000000000000 3.000000000000000
0

0101000
-32 0 +34 0 *
Ed
 0.000000100000000 1 1 0
1  7 0 0.000000000000000 30.000000000000000
2  13 2 0 0.000000000000000 30.000000000000000
2  14 3 0 0.000000000000000 30.000000000000000
0

0101000
-32 0 +44 0 *
Wi

0101100
-33 0 -31 0 +30 0 +42 0 *
Fa
0  0.000000100000000 2 0

0111000
+29 0 *
Ve
0.000000100000000
30.000000000000000 10.000000000000000 3.000000000000000
0 0

0101101
*
Ed
 0.000000100000000 1 1 0
1  8 0 0.000000000000000 30.000000000000000
2  15 4 0 0.000000000000000 30.000000000000000
2  16 3 0 0.000000000000000 30.000000000000000
0

0101000
-27 0 +41 0 *
Ed
 0.000000100000000 1 1 0
1  9 0 0.000000000000000 10.000000000000000
2  17 6 0 0.000000000000000 10.000000000000000
2  18 3 0 0.000000000000000 10.000000000000000
0

0101000
-27 0 +32 0 *
Wi

0101100
-40 4 -26 4 +30 4 +25 4 *
Ve
0.000000100000000
31.500000000000000 30.000000000000000 3.000000000000000
0 0

0101101
*
Ed
 0.000000100000000 1 1 0
1  10 0 0.000000000000000 6.283185307179586
2  19 3 4 0.000000000000000 6.283185307179586
2  20 7 7 0.000000000000000 6.283185307179586
0

0101100
+23 0 -23 0 *
Wi

0101100
+22 0 *
Fa
0  0.000000100000000 3 4

0111000
+24 0 +21 0 *
Ve
0.000000100000000
30.000000000000000 10.000000000000000 0.000000000000000
0 0

0101101
*
Ed
 0.000000100000000 1 1 0
1  11 0 0.000000000000000 30.000000000000000
2  21 4 0 0.000000000000000 30.000000000000000
2  22 5 0 0.000000000000000 30.000000000000000
0

0101000
-19 0 +39 0 *
Ed
 0.000000100000000 1 1 0
1  12 0 0.000000000000000 3.000000000000000
2  23 6 0 0.000000000000000 3.000000000000000
2  24 4 0 0.000000000000000 3.000000000000000
0

0101000
-27 0 +19 0 *
Wi

0101100
-18 0 -17 0 +26 0 +38 0 *
Fa
0  0.000000100000000 4 0

0111000
+16 0 *
Ed
 0.000000100000000 1 1 0
1  13 0 0.000000000000000 10.000000000000000
2  25 6 0 0.000000000000000 10.000000000000000
2  26 5 0 0.000000000000000 10.000000000000000
0

0101000
-19 0 +34 0 *
Wi

0101100
-37 4 -18 4 +33 4 +14 4 *
Ve
0.000000100000000
1.500000000000000 -0.000000000000000 0.000000000000000
0 0

0101101
*
Ed
 0.000000100000000 1 1 0
1  14 0 0.000000000000000 6.283185307179586
2  27 8 0 0.000000000000000 6.283185307179586
2  28 7 0 0.000000000000000 6.283185307179586
2  29 7 9 0.000000000000000 6.283185307179586
2  30 5 10 0.000000000000000 6.283185307179586
0

0101000
+12 0 -12 0 *
Wi

0101100
-11 7 *
Fa
0  0.000000100000000 5 4

0111000
+13 0 +10 0 *
Wi

0101100
-31 0 -25 0 +17 0 +14 0 *
Fa
0  0.000000100000000 6 0

0111000
+8 0 *
Ed
 0.000000100000000 1 1 0
1  15 0 0.000000000000000 3.000000000000000
3  31 32CN 7 0 0.000000000000000 3.000000000000000
0

0101000
+12 0 -23 11 *
Wi

0101100
-11 7 -6 7 -22 0 +6 7 *
Fa
0  0.000000100000000 7 7

0111000
+5 0 *
Sh

0101100
-35 4 -28 4 +20 0 +15 4 -9 0 +7 4 +4 0 *
So

0100000
+3 0 *
Co

1100000
+2 0 *

+1 1 