
CASCADE Topology V1, (c) Matra-Datavision
Locations 23
1
1.000000000000000 0.000000000000000 0.000000000000000 0.000000000000000 
0.000000000000000 1.000000000000000 0.000000000000000 0.000000000000000 
0.000000000000000 0.000000000000000 1.000000000000000 0.000000000000000 
1
1.000000000000000 0.000000000000000 0.000000000000000 0.000000000000000 
0.000000000000000 1.000000000000000 0.000000000000000 0.000000000000000 
0.000000000000000 0.000000000000000 1.000000000000000 0.000000000000000 
1
1.000000000000000 0.000000000000000 0.000000000000000 25.000000000000000 
0.000000000000000 1.000000000000000 0.000000000000000 25.000000000000000 
0.000000000000000 0.000000000000000 1.000000000000000 0.000000000000000 
1
1.000000000000000 0.000000000000000 0.000000000000000 0.000000000000000 
0.000000000000000 1.000000000000000 0.000000000000000 0.000000000000000 
0.000000000000000 0.000000000000000 1.000000000000000 0.000000000000000 
1
1.000000000000000 0.000000000000000 0.000000000000000 0.000000000000000 
0.000000000000000 1.000000000000000 0.000000000000000 0.000000000000000 
0.000000000000000 0.000000000000000 1.000000000000000 0.000000000000000 
2  2 1 3 1 4 1 5 1 0
2  4 1 5 1 0
2  2 1 3 1 0
1
1.000000000000000 0.000000000000000 0.000000000000000 0.000000000000000 
0.000000000000000 1.000000000000000 0.000000000000000 0.000000000000000 
0.000000000000000 0.000000000000000 1.000000000000000 0.000000000000000 
1
1.000000000000000 0.000000000000000 0.000000000000000 30.000000000000000 
0.000000000000000 1.000000000000000 0.000000000000000 30.000000000000000 
0.000000000000000 0.000000000000000 1.000000000000000 0.000000000000000 
2  9 1 10 1 0
1
1.000000000000000 0.000000000000000 0.000000000000000 0.000000000000000 
0.000000000000000 1.000000000000000 0.000000000000000 0.000000000000000 
0.000000000000000 0.000000000000000 1.000000000000000 0.000000000000000 
1
1.000000000000000 0.000000000000000 0.000000000000000 39.000000000000000 
0.000000000000000 1.000000000000000 0.000000000000000 30.000000000000000 
0.000000000000000 0.000000000000000 1.000000000000000 0.000000000000000 
2  12 1 13 1 0
2  9 1 10 1 4 1 5 1 0
1
1.000000000000000 0.000000000000000 0.000000000000000 0.000000000000000 
0.000000000000000 1.000000000000000 0.000000000000000 0.000000000000000 
0.000000000000000 0.000000000000000 1.000000000000000 10.000000000000000 
2  16 -1 0
2  2 1 3 1 10 -1 9 -1 0
1
1.000000000000000 0.000000000000000 0.000000000000000 0.000000000000000 
0.000000000000000 1.000000000000000 0.000000000000000 0.000000000000000 
0.000000000000000 0.000000000000000 1.000000000000000 10.000000000000000 
2  19 -1 0
2  2 1 3 1 4 1 5 1 13 -1 12 -1 0
2  10 -1 9 -1 0
2  13 -1 12 -1 0
Curve2ds 40
1 0.00000000000000000 0.00000000000000000 1.00000000000000000 0.00000000000000000 
1 0.00000000000000000 0.00000000000000000 1.00000000000000000 0.00000000000000000 
1 3.00000000000000000 0.00000000000000000 0.00000000000000000 -1.00000000000000000 
1 0.00000000000000000 0.00000000000000000 0.00000000000000000 1.00000000000000000 
1 0.00000000000000000 -10.00000000000000000 1.00000000000000000 0.00000000000000000 
1 0.00000000000000000 0.00000000000000000 1.00000000000000000 0.00000000000000000 
1 0.00000000000000000 0.00000000000000000 0.00000000000000000 -1.00000000000000000 
1 0.00000000000000000 0.00000000000000000 0.00000000000000000 1.00000000000000000 
1 0.00000000000000000 0.00000000000000000 0.00000000000000000 1.00000000000000000 
1 0.00000000000000000 0.00000000000000000 1.00000000000000000 0.00000000000000000 
1 0.00000000000000000 0.00000000000000000 1.00000000000000000 0.00000000000000000 
1 0.00000000000000000 30.00000000000000000 1.00000000000000000 0.00000000000000000 
1 3.00000000000000000 0.00000000000000000 0.00000000000000000 1.00000000000000000 
1 0.00000000000000000 0.00000000000000000 1.00000000000000000 0.00000000000000000 
1 3.00000000000000000 0.00000000000000000 0.00000000000000000 1.00000000000000000 
1 0.00000000000000000 10.00000000000000000 1.00000000000000000 0.00000000000000000 
1 3.00000000000000000 0.00000000000000000 0.00000000000000000 -1.00000000000000000 
1 30.00000000000000000 0.00000000000000000 0.00000000000000000 1.00000000000000000 
2 5.00000000000000000 5.00000000000000000 1.00000000000000000 0.00000000000000000 0.00000000000000000 -1.00000000000000000 1.50000000000000000
1 6.28318530717958623 -3.00000000000000000 -1.00000000000000000 0.00000000000000000 
2 14.00000000000000000 5.00000000000000000 1.00000000000000000 0.00000000000000000 0.00000000000000000 -1.00000000000000000 1.50000000000000000
1 6.28318530717958623 -3.00000000000000000 -1.00000000000000000 0.00000000000000000 
1 0.00000000000000000 0.00000000000000000 0.00000000000000000 1.00000000000000000 
1 0.00000000000000000 10.00000000000000000 1.00000000000000000 0.00000000000000000 
1 0.00000000000000000 -10.00000000000000000 1.00000000000000000 0.00000000000000000 
1 0.00000000000000000 30.00000000000000000 1.00000000000000000 0.00000000000000000 
1 0.00000000000000000 0.00000000000000000 0.00000000000000000 -1.00000000000000000 
1 30.00000000000000000 0.00000000000000000 0.00000000000000000 1.00000000000000000 
2 0.00000000000000000 0.00000000000000000 1.00000000000000000 0.00000000000000000 -0.00000000000000000 1.00000000000000000 1.50000000000000000
1 0.00000000000000000 0.00000000000000000 1.00000000000000000 0.00000000000000000 
1 0.00000000000000000 -10.00000000000000000 1.00000000000000000 0.00000000000000000 
2 5.00000000000000000 5.00000000000000000 1.00000000000000000 0.00000000000000000 -0.00000000000000000 1.00000000000000000 1.50000000000000000
2 0.00000000000000000 0.00000000000000000 1.00000000000000000 0.00000000000000000 -0.00000000000000000 1.00000000000000000 1.50000000000000000
1 0.00000000000000000 0.00000000000000000 1.00000000000000000 0.00000000000000000 
1 0.00000000000000000 -10.00000000000000000 1.00000000000000000 0.00000000000000000 
2 14.00000000000000000 5.00000000000000000 1.00000000000000000 0.00000000000000000 -0.00000000000000000 1.00000000000000000 1.50000000000000000
1 0.00000000000000000 0.00000000000000000 0.00000000000000000 -1.00000000000000000 
1 6.28318530717958623 0.00000000000000000 0.00000000000000000 -1.00000000000000000 
1 0.00000000000000000 0.00000000000000000 0.00000000000000000 -1.00000000000000000 
1 6.28318530717958623 0.00000000000000000 0.00000000000000000 -1.00000000000000000 
Curves 18
1 0.00000000000000000 0.00000000000000000 0.00000000000000000 0.00000000000000000 0.00000000000000000 1.00000000000000000 
1 0.00000000000000000 0.00000000000000000 3.00000000000000000 -0.00000000000000000 1.00000000000000000 0.00000000000000000 
1 0.00000000000000000 10.00000000000000000 0.00000000000000000 0.00000000000000000 0.00000000000000000 1.00000000000000000 
1 0.00000000000000000 0.00000000000000000 0.00000000000000000 -0.00000000000000000 1.00000000000000000 0.00000000000000000 
1 0.00000000000000000 0.00000000000000000 0.00000000000000000 1.00000000000000000 0.00000000000000000 -0.00000000000000000 
1 30.00000000000000000 0.00000000000000000 0.00000000000000000 0.00000000000000000 0.00000000000000000 1.00000000000000000 
1 0.00000000000000000 0.00000000000000000 3.00000000000000000 1.00000000000000000 0.00000000000000000 -0.00000000000000000 
1 0.00000000000000000 10.00000000000000000 3.00000000000000000 1.00000000000000000 0.00000000000000000 -0.00000000000000000 
1 30.00000000000000000 0.00000000000000000 3.00000000000000000 -0.00000000000000000 1.00000000000000000 0.00000000000000000 
2 30.00000000000000000 30.00000000000000000 3.00000000000000000 0.00000000000000000 0.00000000000000000 -1.00000000000000000 1.00000000000000000 0.00000000000000000 0.00000000000000000 0.00000000000000000 -1.00000000000000000 0.00000000000000000 1.50000000000000000
2 39.00000000000000000 30.00000000000000000 3.00000000000000000 0.00000000000000000 0.00000000000000000 -1.00000000000000000 1.00000000000000000 0.00000000000000000 0.00000000000000000 0.00000000000000000 -1.00000000000000000 0.00000000000000000 1.50000000000000000
1 0.00000000000000000 10.00000000000000000 0.00000000000000000 1.00000000000000000 0.00000000000000000 -0.00000000000000000 
1 30.00000000000000000 10.00000000000000000 0.00000000000000000 0.00000000000000000 0.00000000000000000 1.00000000000000000 
1 30.00000000000000000 0.00000000000000000 0.00000000000000000 -0.00000000000000000 1.00000000000000000 0.00000000000000000 
2 0.00000000000000000 0.00000000000000000 0.00000000000000000 0.00000000000000000 0.00000000000000000 1.00000000000000000 1.00000000000000000 0.00000000000000000 -0.00000000000000000 -0.00000000000000000 1.00000000000000000 0.00000000000000000 1.50000000000000000
2 0.00000000000000000 0.00000000000000000 0.00000000000000000 0.00000000000000000 0.00000000000000000 1.00000000000000000 1.00000000000000000 0.00000000000000000 -0.00000000000000000 -0.00000000000000000 1.00000000000000000 0.00000000000000000 1.50000000000000000
1 1.50000000000000000 -0.00000000000000037 0.00000000000000000 0.00000000000000000 0.00000000000000000 1.00000000000000000 
1 1.50000000000000000 -0.00000000000000037 0.00000000000000000 0.00000000000000000 0.00000000000000000 1.00000000000000000 
Polygon3D 0
PolygonOnTriangulations 0
Surfaces 10
1 0.00000000000000000 0.00000000000000000 0.00000000000000000 1.00000000000000000 0.00000000000000000 -0.00000000000000000 0.00000000000000000 0.00000000000000000 1.00000000000000000 0.00000000000000000 -1.00000000000000000 0.00000000000000000 
1 0.00000000000000000 0.00000000000000000 0.00000000000000000 -0.00000000000000000 1.00000000000000000 0.00000000000000000 0.00000000000000000 0.00000000000000000 1.00000000000000000 1.00000000000000000 0.00000000000000000 -0.00000000000000000 
1 0.00000000000000000 0.00000000000000000 3.00000000000000000 0.00000000000000000 0.00000000000000000 1.00000000000000000 1.00000000000000000 0.00000000000000000 -0.00000000000000000 -0.00000000000000000 1.00000000000000000 0.00000000000000000 
1 0.00000000000000000 10.00000000000000000 0.00000000000000000 -0.00000000000000000 1.00000000000000000 0.00000000000000000 0.00000000000000000 0.00000000000000000 1.00000000000000000 1.00000000000000000 0.00000000000000000 -0.00000000000000000 
1 0.00000000000000000 0.00000000000000000 0.00000000000000000 0.00000000000000000 0.00000000000000000 1.00000000000000000 1.00000000000000000 0.00000000000000000 -0.00000000000000000 -0.00000000000000000 1.00000000000000000 0.00000000000000000 
1 30.00000000000000000 0.00000000000000000 0.00000000000000000 1.00000000000000000 0.00000000000000000 -0.00000000000000000 0.00000000000000000 0.00000000000000000 1.00000000000000000 0.00000000000000000 -1.00000000000000000 0.00000000000000000 
2 0.00000000000000000 0.00000000000000000 0.00000000000000000 -0.00000000000000000 -0.00000000000000000 -1.00000000000000000 1.00000000000000000 0.00000000000000000 -0.00000000000000000 -0.00000000000000000 1.00000000000000000 0.00000000000000000 1.50000000000000000
2 0.00000000000000000 0.00000000000000000 0.00000000000000000 -0.00000000000000000 -0.00000000000000000 -1.00000000000000000 1.00000000000000000 0.00000000000000000 -0.00000000000000000 -0.00000000000000000 1.00000000000000000 0.00000000000000000 1.50000000000000000
1 0.00000000000000000 0.00000000000000000 0.00000000000000000 0.00000000000000000 0.00000000000000000 1.00000000000000000 1.00000000000000000 0.00000000000000000 -0.00000000000000000 -0.00000000000000000 1.00000000000000000 0.00000000000000000 
1 0.00000000000000000 0.00000000000000000 0.00000000000000000 0.00000000000000000 0.00000000000000000 1.00000000000000000 1.00000000000000000 0.00000000000000000 -0.00000000000000000 -0.00000000000000000 1.00000000000000000 0.00000000000000000 
Triangulations 0

TShapes 53
Ve
0.000000100000000
0.000000000000000 0.000000000000000 3.000000000000000
0 0

0101101
*
Ve
0.000000100000000
0.000000000000000 0.000000000000000 0.000000000000000
0 0

0101101
*
Ed
 0.000000100000000 1 1 0
1  1 0 0.000000000000000 3.000000000000000
2  1 1 0 0.000000000000000 3.000000000000000
2  2 2 0 0.000000000000000 3.000000000000000
0

0101000
-53 0 +52 0 *
Ve
0.000000100000000
0.000000000000000 10.000000000000000 3.000000000000000
0 0

0101101
*
Ed
 0.000000100000000 1 1 0
1  2 0 0.000000000000000 10.000000000000000
2  3 1 0 0.000000000000000 10.000000000000000
2  4 3 0 0.000000000000000 10.000000000000000
0

0101000
-50 0 +53 0 *
Ve
0.000000100000000
0.000000000000000 10.000000000000000 0.000000000000000
0 0

0101101
*
Ed
 0.000000100000000 1 1 0
1  3 0 0.000000000000000 3.000000000000000
2  5 1 0 0.000000000000000 3.000000000000000
2  6 4 0 0.000000000000000 3.000000000000000
0

0101000
-50 0 +48 0 *
Ed
 0.000000100000000 1 1 0
1  4 0 0.000000000000000 10.000000000000000
2  7 1 0 0.000000000000000 10.000000000000000
2  8 5 0 0.000000000000000 10.000000000000000
0

0101000
-48 0 +52 0 *
Wi

0101100
-51 0 -49 0 +47 0 +46 0 *
Fa
0  0.000000100000000 1 0

0111000
+45 0 *
Ve
0.000000100000000
30.000000000000000 0.000000000000000 0.000000000000000
0 0

0101101
*
Ed
 0.000000100000000 1 1 0
1  5 0 0.000000000000000 30.000000000000000
2  9 2 0 0.000000000000000 30.000000000000000
2  10 5 0 0.000000000000000 30.000000000000000
0

0101000
-43 0 +52 0 *
Ve
0.000000100000000
30.000000000000000 0.000000000000000 3.000000000000000
0 0

0101101
*
Ed
 0.000000100000000 1 1 0
1  6 0 0.000000000000000 3.000000000000000
2  11 6 0 0.000000000000000 3.000000000000000
2  12 2 0 0.000000000000000 3.000000000000000
0

0101000
-41 0 +43 0 *
Ed
 0.000000100000000 1 1 0
1  7 0 0.000000000000000 30.000000000000000
2  13 2 0 0.000000000000000 30.000000000000000
2  14 3 0 0.000000000000000 30.000000000000000
0

0101000
-41 0 +53 0 *
Wi

0101100
-42 0 -40 0 +39 0 +51 0 *
Fa
0  0.000000100000000 2 0

0111000
+38 0 *
Ve
0.000000100000000
30.000000000000000 10.000000000000000 3.000000000000000
0 0

0101101
*
Ed
 0.000000100000000 1 1 0
1  8 0 0.000000000000000 30.000000000000000
2  15 4 0 0.000000000000000 30.000000000000000
2  16 3 0 0.000000000000000 30.000000000000000
0

0101000
-36 0 +50 0 *
Ed
 0.000000100000000 1 1 0
1  9 0 0.000000000000000 10.000000000000000
2  17 6 0 0.000000000000000 10.000000000000000
2  18 3 0 0.000000000000000 10.000000000000000
0

0101000
-36 0 +41 0 *
Wi

0101100
-49 6 -35 6 +39 6 +34 6 *
Ve
0.000000100000000
31.500000000000000 30.000000000000000 3.000000000000000
0 0

0101101
*
Ed
 0.000000100000000 1 1 0
1  10 0 0.000000000000000 6.283185307179586
2  19 3 8 0.000000000000000 6.283185307179586
2  20 7 11 0.000000000000000 6.283185307179586
0

0101100
+32 0 -32 0 *
Wi

0101100
+31 7 *
Ve
0.000000100000000
40.500000000000000 30.000000000000000 3.000000000000000
0 0

0101101
*
Ed
 0.000000100000000 1 1 0
1  11 0 0.000000000000000 6.283185307179586
2  21 3 6 0.000000000000000 6.283185307179586
2  22 8 14 0.000000000000000 6.283185307179586
0

0101100
+29 0 -29 0 *
Wi

0101100
+28 0 *
Fa
0  0.000000100000000 3 6

0111000
+33 0 +30 0 +27 0 *
Ve
0.000000100000000
30.000000000000000 10.000000000000000 0.000000000000000
0 0

0101101
*
Ed
 0.000000100000000 1 1 0
1  12 0 0.000000000000000 30.000000000000000
2  23 4 0 0.000000000000000 30.000000000000000
2  24 5 0 0.000000000000000 30.000000000000000
0

0101000
-25 0 +48 0 *
Ed
 0.000000100000000 1 1 0
1  13 0 0.000000000000000 3.000000000000000
2  25 6 0 0.000000000000000 3.000000000000000
2  26 4 0 0.000000000000000 3.000000000000000
0

0101000
-36 0 +25 0 *
Wi

0101100
-24 0 -23 0 +35 0 +47 0 *
Fa
0  0.000000100000000 4 0

0111000
+22 0 *
Ed
 0.000000100000000 1 1 0
1  14 0 0.000000000000000 10.000000000000000
2  27 6 0 0.000000000000000 10.000000000000000
2  28 5 0 0.000000000000000 10.000000000000000
0

0101000
-25 0 +43 0 *
Wi

0101100
-46 6 -24 6 +42 6 +20 6 *
Ve
0.000000100000000
1.500000000000000 -0.000000000000000 0.000000000000000
0 0

0101101
*
Ed
 0.000000100000000 1 1 0
1  15 0 0.000000000000000 6.283185307179586
2  29 9 0 0.000000000000000 6.283185307179586
2  30 7 0 0.000000000000000 6.283185307179586
2  31 7 17 0.000000000000000 6.283185307179586
2  32 5 18 0.000000000000000 6.283185307179586
0

0101000
+18 0 -18 0 *
Wi

0101100
-17 15 *
Ve
0.000000100000000
1.500000000000000 -0.000000000000000 0.000000000000000
0 0

0101101
*
Ed
 0.000000100000000 1 1 0
1  16 0 0.000000000000000 6.283185307179586
2  33 10 0 0.000000000000000 6.283185307179586
2  34 8 0 0.000000000000000 6.283185307179586
2  35 8 20 0.000000000000000 6.283185307179586
2  36 5 21 0.000000000000000 6.283185307179586
0

0101000
+15 0 -15 0 *
Wi

0101100
-14 14 *
Fa
0  0.000000100000000 5 6

0111000
+19 0 +16 0 +13 0 *
Wi

0101100
-40 0 -34 0 +23 0 +20 0 *
Fa
0  0.000000100000000 6 0

0111000
+11 0 *
Ed
 0.000000100000000 1 1 0
1  17 0 0.000000000000000 3.000000000000000
3  37 38CN 7 0 0.000000000000000 3.000000000000000
0

0101000
+18 0 -32 22 *
Wi

0101100
-17 11 -9 11 -31 0 +9 11 *
Fa
0  0.000000100000000 7 11

0111000
+8 0 *
Ed
 0.000000100000000 1 1 0
1  18 0 0.000000000000000 3.000000000000000
3  39 40CN 8 0 0.000000000000000 3.000000000000000
0

0101000
+15 0 -29 23 *
Wi

0101100
-14 14 -6 14 -28 0 +6 14 *
Fa
0  0.000000100000000 8 14

0111000
+5 0 *
Sh

0101100
-44 6 -37 6 +26 0 +21 6 -12 0 +10 6 +7 7 +4 0 *
So

0100000
+3 0 *
Co

1100000
+2 0 *

+1 1 