
CASCADE Topology V1, (c) Matra-Datavision
Locations 35
1
1.000000000000000 0.000000000000000 0.000000000000000 0.000000000000000 
0.000000000000000 1.000000000000000 0.000000000000000 0.000000000000000 
0.000000000000000 0.000000000000000 1.000000000000000 0.000000000000000 
1
1.000000000000000 0.000000000000000 0.000000000000000 0.000000000000000 
0.000000000000000 1.000000000000000 0.000000000000000 0.000000000000000 
0.000000000000000 0.000000000000000 1.000000000000000 0.000000000000000 
1
1.000000000000000 0.000000000000000 0.000000000000000 25.000000000000000 
0.000000000000000 1.000000000000000 0.000000000000000 25.000000000000000 
0.000000000000000 0.000000000000000 1.000000000000000 0.000000000000000 
1
1.000000000000000 0.000000000000000 0.000000000000000 0.000000000000000 
0.000000000000000 1.000000000000000 0.000000000000000 0.000000000000000 
0.000000000000000 0.000000000000000 1.000000000000000 0.000000000000000 
1
1.000000000000000 0.000000000000000 0.000000000000000 0.000000000000000 
0.000000000000000 1.000000000000000 0.000000000000000 0.000000000000000 
0.000000000000000 0.000000000000000 1.000000000000000 0.000000000000000 
1
1.000000000000000 0.000000000000000 0.000000000000000 0.000000000000000 
0.000000000000000 1.000000000000000 0.000000000000000 0.000000000000000 
0.000000000000000 0.000000000000000 1.000000000000000 0.000000000000000 
1
1.000000000000000 0.000000000000000 0.000000000000000 0.000000000000000 
0.000000000000000 1.000000000000000 0.000000000000000 0.000000000000000 
0.000000000000000 0.000000000000000 1.000000000000000 0.000000000000000 
2  2 1 3 1 4 1 5 1 6 1 7 1 0
2  4 1 5 1 6 1 7 1 0
2  2 1 3 1 0
1
1.000000000000000 0.000000000000000 0.000000000000000 0.000000000000000 
0.000000000000000 1.000000000000000 0.000000000000000 0.000000000000000 
0.000000000000000 0.000000000000000 1.000000000000000 0.000000000000000 
1
1.000000000000000 0.000000000000000 0.000000000000000 30.000000000000000 
0.000000000000000 1.000000000000000 0.000000000000000 30.000000000000000 
0.000000000000000 0.000000000000000 1.000000000000000 0.000000000000000 
2  11 1 12 1 0
2  6 1 7 1 0
2  2 1 3 1 4 1 5 1 0
1
1.000000000000000 0.000000000000000 0.000000000000000 0.000000000000000 
0.000000000000000 1.000000000000000 0.000000000000000 0.000000000000000 
0.000000000000000 0.000000000000000 1.000000000000000 0.000000000000000 
1
1.000000000000000 0.000000000000000 0.000000000000000 39.000000000000000 
0.000000000000000 1.000000000000000 0.000000000000000 30.000000000000000 
0.000000000000000 0.000000000000000 1.000000000000000 0.000000000000000 
2  16 1 17 1 0
1
1.000000000000000 0.000000000000000 0.000000000000000 0.000000000000000 
0.000000000000000 1.000000000000000 0.000000000000000 0.000000000000000 
0.000000000000000 0.000000000000000 1.000000000000000 0.000000000000000 
1
1.000000000000000 0.000000000000000 0.000000000000000 48.000000000000000 
0.000000000000000 1.000000000000000 0.000000000000000 30.000000000000000 
0.000000000000000 0.000000000000000 1.000000000000000 0.000000000000000 
2  19 1 20 1 0
2  11 1 12 1 4 1 5 1 6 1 7 1 0
1
1.000000000000000 0.000000000000000 0.000000000000000 0.000000000000000 
0.000000000000000 1.000000000000000 0.000000000000000 0.000000000000000 
0.000000000000000 0.000000000000000 1.000000000000000 10.000000000000000 
2  23 -1 0
2  2 1 3 1 12 -1 11 -1 0
2  16 1 17 1 6 1 7 1 0
1
1.000000000000000 0.000000000000000 0.000000000000000 0.000000000000000 
0.000000000000000 1.000000000000000 0.000000000000000 0.000000000000000 
0.000000000000000 0.000000000000000 1.000000000000000 10.000000000000000 
2  27 -1 0
2  2 1 3 1 4 1 5 1 17 -1 16 -1 0
1
1.000000000000000 0.000000000000000 0.000000000000000 0.000000000000000 
0.000000000000000 1.000000000000000 0.000000000000000 0.000000000000000 
0.000000000000000 0.000000000000000 1.000000000000000 10.000000000000000 
2  30 -1 0
2  2 1 3 1 4 1 5 1 6 1 7 1 20 -1 19 -1 0
2  12 -1 11 -1 0
2  17 -1 16 -1 0
2  20 -1 19 -1 0
Curve2ds 48
1 0.00000000000000000 0.00000000000000000 1.00000000000000000 0.00000000000000000 
1 0.00000000000000000 0.00000000000000000 1.00000000000000000 0.00000000000000000 
1 3.00000000000000000 0.00000000000000000 0.00000000000000000 -1.00000000000000000 
1 0.00000000000000000 0.00000000000000000 0.00000000000000000 1.00000000000000000 
1 0.00000000000000000 -10.00000000000000000 1.00000000000000000 0.00000000000000000 
1 0.00000000000000000 0.00000000000000000 1.00000000000000000 0.00000000000000000 
1 0.00000000000000000 0.00000000000000000 0.00000000000000000 -1.00000000000000000 
1 0.00000000000000000 0.00000000000000000 0.00000000000000000 1.00000000000000000 
1 0.00000000000000000 0.00000000000000000 0.00000000000000000 1.00000000000000000 
1 0.00000000000000000 0.00000000000000000 1.00000000000000000 0.00000000000000000 
1 0.00000000000000000 0.00000000000000000 1.00000000000000000 0.00000000000000000 
1 0.00000000000000000 30.00000000000000000 1.00000000000000000 0.00000000000000000 
1 3.00000000000000000 0.00000000000000000 0.00000000000000000 1.00000000000000000 
1 0.00000000000000000 0.00000000000000000 1.00000000000000000 0.00000000000000000 
1 3.00000000000000000 0.00000000000000000 0.00000000000000000 1.00000000000000000 
1 0.00000000000000000 10.00000000000000000 1.00000000000000000 0.00000000000000000 
1 3.00000000000000000 0.00000000000000000 0.00000000000000000 -1.00000000000000000 
1 30.00000000000000000 0.00000000000000000 0.00000000000000000 1.00000000000000000 
2 5.00000000000000000 5.00000000000000000 1.00000000000000000 0.00000000000000000 0.00000000000000000 -1.00000000000000000 1.50000000000000000
1 6.28318530717958623 -3.00000000000000000 -1.00000000000000000 0.00000000000000000 
2 14.00000000000000000 5.00000000000000000 1.00000000000000000 0.00000000000000000 0.00000000000000000 -1.00000000000000000 1.50000000000000000
1 6.28318530717958623 -3.00000000000000000 -1.00000000000000000 0.00000000000000000 
2 23.00000000000000000 5.00000000000000000 1.00000000000000000 0.00000000000000000 0.00000000000000000 -1.00000000000000000 1.50000000000000000
1 6.28318530717958623 -3.00000000000000000 -1.00000000000000000 0.00000000000000000 
1 0.00000000000000000 0.00000000000000000 0.00000000000000000 1.00000000000000000 
1 0.00000000000000000 10.00000000000000000 1.00000000000000000 0.00000000000000000 
1 0.00000000000000000 -10.00000000000000000 1.00000000000000000 0.00000000000000000 
1 0.00000000000000000 30.00000000000000000 1.00000000000000000 0.00000000000000000 
1 0.00000000000000000 0.00000000000000000 0.00000000000000000 -1.00000000000000000 
1 30.00000000000000000 0.00000000000000000 0.00000000000000000 1.00000000000000000 
2 0.00000000000000000 0.00000000000000000 1.00000000000000000 0.00000000000000000 -0.00000000000000000 1.00000000000000000 1.50000000000000000
1 0.00000000000000000 0.00000000000000000 1.00000000000000000 0.00000000000000000 
1 0.00000000000000000 -10.00000000000000000 1.00000000000000000 0.00000000000000000 
2 5.00000000000000000 5.00000000000000000 1.00000000000000000 0.00000000000000000 -0.00000000000000000 1.00000000000000000 1.50000000000000000
2 0.00000000000000000 0.00000000000000000 1.00000000000000000 0.00000000000000000 -0.00000000000000000 1.00000000000000000 1.50000000000000000
1 0.00000000000000000 0.00000000000000000 1.00000000000000000 0.00000000000000000 
1 0.00000000000000000 -10.00000000000000000 1.00000000000000000 0.00000000000000000 
2 14.00000000000000000 5.00000000000000000 1.00000000000000000 0.00000000000000000 -0.00000000000000000 1.00000000000000000 1.50000000000000000
2 0.00000000000000000 0.00000000000000000 1.00000000000000000 0.00000000000000000 -0.00000000000000000 1.00000000000000000 1.50000000000000000
1 0.00000000000000000 0.00000000000000000 1.00000000000000000 0.00000000000000000 
1 0.00000000000000000 -10.00000000000000000 1.00000000000000000 0.00000000000000000 
2 23.00000000000000000 5.00000000000000000 1.00000000000000000 0.00000000000000000 -0.00000000000000000 1.00000000000000000 1.50000000000000000
1 0.00000000000000000 0.00000000000000000 0.00000000000000000 -1.00000000000000000 
1 6.28318530717958623 0.00000000000000000 0.00000000000000000 -1.00000000000000000 
1 0.00000000000000000 0.00000000000000000 0.00000000000000000 -1.00000000000000000 
1 6.28318530717958623 0.00000000000000000 0.00000000000000000 -1.00000000000000000 
1 0.00000000000000000 0.00000000000000000 0.00000000000000000 -1.00000000000000000 
1 6.28318530717958623 0.00000000000000000 0.00000000000000000 -1.00000000000000000 
Curves 21
1 0.00000000000000000 0.00000000000000000 0.00000000000000000 0.00000000000000000 0.00000000000000000 1.00000000000000000 
1 0.00000000000000000 0.00000000000000000 3.00000000000000000 -0.00000000000000000 1.00000000000000000 0.00000000000000000 
1 0.00000000000000000 10.00000000000000000 0.00000000000000000 0.00000000000000000 0.00000000000000000 1.00000000000000000 
1 0.00000000000000000 0.00000000000000000 0.00000000000000000 -0.00000000000000000 1.00000000000000000 0.00000000000000000 
1 0.00000000000000000 0.00000000000000000 0.00000000000000000 1.00000000000000000 0.00000000000000000 -0.00000000000000000 
1 30.00000000000000000 0.00000000000000000 0.00000000000000000 0.00000000000000000 0.00000000000000000 1.00000000000000000 
1 0.00000000000000000 0.00000000000000000 3.00000000000000000 1.00000000000000000 0.00000000000000000 -0.00000000000000000 
1 0.00000000000000000 10.00000000000000000 3.00000000000000000 1.00000000000000000 0.00000000000000000 -0.00000000000000000 
1 30.00000000000000000 0.00000000000000000 3.00000000000000000 -0.00000000000000000 1.00000000000000000 0.00000000000000000 
2 30.00000000000000000 30.00000000000000000 3.00000000000000000 0.00000000000000000 0.00000000000000000 -1.00000000000000000 1.00000000000000000 0.00000000000000000 0.00000000000000000 0.00000000000000000 -1.00000000000000000 0.00000000000000000 1.50000000000000000
2 39.00000000000000000 30.00000000000000000 3.00000000000000000 0.00000000000000000 0.00000000000000000 -1.00000000000000000 1.00000000000000000 0.00000000000000000 0.00000000000000000 0.00000000000000000 -1.00000000000000000 0.00000000000000000 1.50000000000000000
2 48.00000000000000000 30.00000000000000000 3.00000000000000000 0.00000000000000000 0.00000000000000000 -1.00000000000000000 1.00000000000000000 0.00000000000000000 0.00000000000000000 0.00000000000000000 -1.00000000000000000 0.00000000000000000 1.50000000000000000
1 0.00000000000000000 10.00000000000000000 0.00000000000000000 1.00000000000000000 0.00000000000000000 -0.00000000000000000 
1 30.00000000000000000 10.00000000000000000 0.00000000000000000 0.00000000000000000 0.00000000000000000 1.00000000000000000 
1 30.00000000000000000 0.00000000000000000 0.00000000000000000 -0.00000000000000000 1.00000000000000000 0.00000000000000000 
2 0.00000000000000000 0.00000000000000000 0.00000000000000000 0.00000000000000000 0.00000000000000000 1.00000000000000000 1.00000000000000000 0.00000000000000000 -0.00000000000000000 -0.00000000000000000 1.00000000000000000 0.00000000000000000 1.50000000000000000
2 0.00000000000000000 0.00000000000000000 0.00000000000000000 0.00000000000000000 0.00000000000000000 1.00000000000000000 1.00000000000000000 0.00000000000000000 -0.00000000000000000 -0.00000000000000000 1.00000000000000000 0.00000000000000000 1.50000000000000000
2 0.00000000000000000 0.00000000000000000 0.00000000000000000 0.00000000000000000 0.00000000000000000 1.00000000000000000 1.00000000000000000 0.00000000000000000 -0.00000000000000000 -0.00000000000000000 1.00000000000000000 0.00000000000000000 1.50000000000000000
1 1.50000000000000000 -0.00000000000000037 0.00000000000000000 0.00000000000000000 0.00000000000000000 1.00000000000000000 
1 1.50000000000000000 -0.00000000000000037 0.00000000000000000 0.00000000000000000 0.00000000000000000 1.00000000000000000 
1 1.50000000000000000 -0.00000000000000037 0.00000000000000000 0.00000000000000000 0.00000000000000000 1.00000000000000000 
Polygon3D 0
PolygonOnTriangulations 0
Surfaces 12
1 0.00000000000000000 0.00000000000000000 0.00000000000000000 1.00000000000000000 0.00000000000000000 -0.00000000000000000 0.00000000000000000 0.00000000000000000 1.00000000000000000 0.00000000000000000 -1.00000000000000000 0.00000000000000000 
1 0.00000000000000000 0.00000000000000000 0.00000000000000000 -0.00000000000000000 1.00000000000000000 0.00000000000000000 0.00000000000000000 0.00000000000000000 1.00000000000000000 1.00000000000000000 0.00000000000000000 -0.00000000000000000 
1 0.00000000000000000 0.00000000000000000 3.00000000000000000 0.00000000000000000 0.00000000000000000 1.00000000000000000 1.00000000000000000 0.00000000000000000 -0.00000000000000000 -0.00000000000000000 1.00000000000000000 0.00000000000000000 
1 0.00000000000000000 10.00000000000000000 0.00000000000000000 -0.00000000000000000 1.00000000000000000 0.00000000000000000 0.00000000000000000 0.00000000000000000 1.00000000000000000 1.00000000000000000 0.00000000000000000 -0.00000000000000000 
1 0.00000000000000000 0.00000000000000000 0.00000000000000000 0.00000000000000000 0.00000000000000000 1.00000000000000000 1.00000000000000000 0.00000000000000000 -0.00000000000000000 -0.00000000000000000 1.00000000000000000 0.00000000000000000 
1 30.00000000000000000 0.00000000000000000 0.00000000000000000 1.00000000000000000 0.00000000000000000 -0.00000000000000000 0.00000000000000000 0.00000000000000000 1.00000000000000000 0.00000000000000000 -1.00000000000000000 0.00000000000000000 
2 0.00000000000000000 0.00000000000000000 0.00000000000000000 -0.00000000000000000 -0.00000000000000000 -1.00000000000000000 1.00000000000000000 0.00000000000000000 -0.00000000000000000 -0.00000000000000000 1.00000000000000000 0.00000000000000000 1.50000000000000000
2 0.00000000000000000 0.00000000000000000 0.00000000000000000 -0.00000000000000000 -0.00000000000000000 -1.00000000000000000 1.00000000000000000 0.00000000000000000 -0.00000000000000000 -0.00000000000000000 1.00000000000000000 0.00000000000000000 1.50000000000000000
2 0.00000000000000000 0.00000000000000000 0.00000000000000000 -0.00000000000000000 -0.00000000000000000 -1.00000000000000000 1.00000000000000000 0.00000000000000000 -0.00000000000000000 -0.00000000000000000 1.00000000000000000 0.00000000000000000 1.50000000000000000
1 0.00000000000000000 0.00000000000000000 0.00000000000000000 0.00000000000000000 0.00000000000000000 1.00000000000000000 1.00000000000000000 0.00000000000000000 -0.00000000000000000 -0.00000000000000000 1.00000000000000000 0.00000000000000000 
1 0.00000000000000000 0.00000000000000000 0.00000000000000000 0.00000000000000000 0.00000000000000000 1.00000000000000000 1.00000000000000000 0.00000000000000000 -0.00000000000000000 -0.00000000000000000 1.00000000000000000 0.00000000000000000 
1 0.00000000000000000 0.00000000000000000 0.00000000000000000 0.00000000000000000 0.00000000000000000 1.00000000000000000 1.00000000000000000 0.00000000000000000 -0.00000000000000000 -0.00000000000000000 1.00000000000000000 0.00000000000000000 
Triangulations 0

TShapes 62
Ve
0.000000100000000
0.000000000000000 0.000000000000000 3.000000000000000
0 0

0101101
*
Ve
0.000000100000000
0.000000000000000 0.000000000000000 0.000000000000000
0 0

0101101
*
Ed
 0.000000100000000 1 1 0
1  1 0 0.000000000000000 3.000000000000000
2  1 1 0 0.000000000000000 3.000000000000000
2  2 2 0 0.000000000000000 3.000000000000000
0

0101000
-62 0 +61 0 *
Ve
0.000000100000000
0.000000000000000 10.000000000000000 3.000000000000000
0 0

0101101
*
Ed
 0.000000100000000 1 1 0
1  2 0 0.000000000000000 10.000000000000000
2  3 1 0 0.000000000000000 10.000000000000000
2  4 3 0 0.000000000000000 10.000000000000000
0

0101000
-59 0 +62 0 *
Ve
0.000000100000000
0.000000000000000 10.000000000000000 0.000000000000000
0 0

0101101
*
Ed
 0.000000100000000 1 1 0
1  3 0 0.000000000000000 3.000000000000000
2  5 1 0 0.000000000000000 3.000000000000000
2  6 4 0 0.000000000000000 3.000000000000000
0

0101000
-59 0 +57 0 *
Ed
 0.000000100000000 1 1 0
1  4 0 0.000000000000000 10.000000000000000
2  7 1 0 0.000000000000000 10.000000000000000
2  8 5 0 0.000000000000000 10.000000000000000
0

0101000
-57 0 +61 0 *
Wi

0101100
-60 0 -58 0 +56 0 +55 0 *
Fa
0  0.000000100000000 1 0

0111000
+54 0 *
Ve
0.000000100000000
30.000000000000000 0.000000000000000 0.000000000000000
0 0

0101101
*
Ed
 0.000000100000000 1 1 0
1  5 0 0.000000000000000 30.000000000000000
2  9 2 0 0.000000000000000 30.000000000000000
2  10 5 0 0.000000000000000 30.000000000000000
0

0101000
-52 0 +61 0 *
Ve
0.000000100000000
30.000000000000000 0.000000000000000 3.000000000000000
0 0

0101101
*
Ed
 0.000000100000000 1 1 0
1  6 0 0.000000000000000 3.000000000000000
2  11 6 0 0.000000000000000 3.000000000000000
2  12 2 0 0.000000000000000 3.000000000000000
0

0101000
-50 0 +52 0 *
Ed
 0.000000100000000 1 1 0
1  7 0 0.000000000000000 30.000000000000000
2  13 2 0 0.000000000000000 30.000000000000000
2  14 3 0 0.000000000000000 30.000000000000000
0

0101000
-50 0 +62 0 *
Wi

0101100
-51 0 -49 0 +48 0 +60 0 *
Fa
0  0.000000100000000 2 0

0111000
+47 0 *
Ve
0.000000100000000
30.000000000000000 10.000000000000000 3.000000000000000
0 0

0101101
*
Ed
 0.000000100000000 1 1 0
1  8 0 0.000000000000000 30.000000000000000
2  15 4 0 0.000000000000000 30.000000000000000
2  16 3 0 0.000000000000000 30.000000000000000
0

0101000
-45 0 +59 0 *
Ed
 0.000000100000000 1 1 0
1  9 0 0.000000000000000 10.000000000000000
2  17 6 0 0.000000000000000 10.000000000000000
2  18 3 0 0.000000000000000 10.000000000000000
0

0101000
-45 0 +50 0 *
Wi

0101100
-58 8 -44 8 +48 8 +43 8 *
Ve
0.000000100000000
31.500000000000000 30.000000000000000 3.000000000000000
0 0

0101101
*
Ed
 0.000000100000000 1 1 0
1  10 0 0.000000000000000 6.283185307179586
2  19 3 10 0.000000000000000 6.283185307179586
2  20 7 13 0.000000000000000 6.283185307179586
0

0101100
+41 0 -41 0 *
Wi

0101100
+40 9 *
Ve
0.000000100000000
40.500000000000000 30.000000000000000 3.000000000000000
0 0

0101101
*
Ed
 0.000000100000000 1 1 0
1  11 0 0.000000000000000 6.283185307179586
2  21 3 15 0.000000000000000 6.283185307179586
2  22 8 18 0.000000000000000 6.283185307179586
0

0101100
+38 0 -38 0 *
Wi

0101100
+37 14 *
Ve
0.000000100000000
49.500000000000000 30.000000000000000 3.000000000000000
0 0

0101101
*
Ed
 0.000000100000000 1 1 0
1  12 0 0.000000000000000 6.283185307179586
2  23 3 8 0.000000000000000 6.283185307179586
2  24 9 21 0.000000000000000 6.283185307179586
0

0101100
+35 0 -35 0 *
Wi

0101100
+34 0 *
Fa
0  0.000000100000000 3 8

0111000
+42 0 +39 0 +36 0 +33 0 *
Ve
0.000000100000000
30.000000000000000 10.000000000000000 0.000000000000000
0 0

0101101
*
Ed
 0.000000100000000 1 1 0
1  13 0 0.000000000000000 30.000000000000000
2  25 4 0 0.000000000000000 30.000000000000000
2  26 5 0 0.000000000000000 30.000000000000000
0

0101000
-31 0 +57 0 *
Ed
 0.000000100000000 1 1 0
1  14 0 0.000000000000000 3.000000000000000
2  27 6 0 0.000000000000000 3.000000000000000
2  28 4 0 0.000000000000000 3.000000000000000
0

0101000
-45 0 +31 0 *
Wi

0101100
-30 0 -29 0 +44 0 +56 0 *
Fa
0  0.000000100000000 4 0

0111000
+28 0 *
Ed
 0.000000100000000 1 1 0
1  15 0 0.000000000000000 10.000000000000000
2  29 6 0 0.000000000000000 10.000000000000000
2  30 5 0 0.000000000000000 10.000000000000000
0

0101000
-31 0 +52 0 *
Wi

0101100
-55 8 -30 8 +51 8 +26 8 *
Ve
0.000000100000000
1.500000000000000 -0.000000000000000 0.000000000000000
0 0

0101101
*
Ed
 0.000000100000000 1 1 0
1  16 0 0.000000000000000 6.283185307179586
2  31 10 0 0.000000000000000 6.283185307179586
2  32 7 0 0.000000000000000 6.283185307179586
2  33 7 24 0.000000000000000 6.283185307179586
2  34 5 25 0.000000000000000 6.283185307179586
0

0101000
+24 0 -24 0 *
Wi

0101100
-23 22 *
Ve
0.000000100000000
1.500000000000000 -0.000000000000000 0.000000000000000
0 0

0101101
*
Ed
 0.000000100000000 1 1 0
1  17 0 0.000000000000000 6.283185307179586
2  35 11 0 0.000000000000000 6.283185307179586
2  36 8 0 0.000000000000000 6.283185307179586
2  37 8 28 0.000000000000000 6.283185307179586
2  38 5 29 0.000000000000000 6.283185307179586
0

0101000
+21 0 -21 0 *
Wi

0101100
-20 26 *
Ve
0.000000100000000
1.500000000000000 -0.000000000000000 0.000000000000000
0 0

0101101
*
Ed
 0.000000100000000 1 1 0
1  18 0 0.000000000000000 6.283185307179586
2  39 12 0 0.000000000000000 6.283185307179586
2  40 9 0 0.000000000000000 6.283185307179586
2  41 9 31 0.000000000000000 6.283185307179586
2  42 5 32 0.000000000000000 6.283185307179586
0

0101000
+18 0 -18 0 *
Wi

0101100
-17 21 *
Fa
0  0.000000100000000 5 8

0111000
+25 0 +22 0 +19 0 +16 0 *
Wi

0101100
-49 0 -43 0 +29 0 +26 0 *
Fa
0  0.000000100000000 6 0

0111000
+14 0 *
Ed
 0.000000100000000 1 1 0
1  19 0 0.000000000000000 3.000000000000000
3  43 44CN 7 0 0.000000000000000 3.000000000000000
0

0101000
+24 0 -41 33 *
Wi

0101100
-23 13 -12 13 -40 0 +12 13 *
Fa
0  0.000000100000000 7 13

0111000
+11 0 *
Ed
 0.000000100000000 1 1 0
1  20 0 0.000000000000000 3.000000000000000
3  45 46CN 8 0 0.000000000000000 3.000000000000000
0

0101000
+21 0 -38 34 *
Wi

0101100
-20 18 -9 18 -37 0 +9 18 *
Fa
0  0.000000100000000 8 18

0111000
+8 0 *
Ed
 0.000000100000000 1 1 0
1  21 0 0.000000000000000 3.000000000000000
3  47 48CN 9 0 0.000000000000000 3.000000000000000
0

0101000
+18 0 -35 35 *
Wi

0101100
-17 21 -6 21 -34 0 +6 21 *
Fa
0  0.000000100000000 9 21

0111000
+5 0 *
Sh

0101100
-53 8 -46 8 +32 0 +27 8 -15 0 +13 8 +10 9 +7 14 +4 0 *
So

0100000
+3 0 *
Co

1100000
+2 0 *

+1 1 