
CASCADE Topology V1, (c) Matra-Datavision
Locations 30
1
1.000000000000000 0.000000000000000 0.000000000000000 0.000000000000000 
0.000000000000000 1.000000000000000 0.000000000000000 5.000000000000000 
0.000000000000000 0.000000000000000 1.000000000000000 0.000000000000000 
1
1.000000000000000 0.000000000000000 0.000000000000000 0.000000000000000 
0.000000000000000 1.000000000000000 0.000000000000000 0.000000000000000 
0.000000000000000 0.000000000000000 1.000000000000000 0.000000000000000 
1
1.000000000000000 0.000000000000000 0.000000000000000 -20.000000000000000 
0.000000000000000 1.000000000000000 0.000000000000000 -18.000000000000000 
0.000000000000000 0.000000000000000 1.000000000000000 0.000000000000000 
2  2 1 3 1 0
2  3 -1 2 -1 0
1
1.000000000000000 0.000000000000000 0.000000000000000 0.000000000000000 
0.000000000000000 1.000000000000000 0.000000000000000 0.000000000000000 
0.000000000000000 0.000000000000000 1.000000000000000 0.000000000000000 
1
1.000000000000000 0.000000000000000 0.000000000000000 -15.000000000000000 
0.000000000000000 1.000000000000000 0.000000000000000 -13.000000000000000 
0.000000000000000 0.000000000000000 1.000000000000000 0.000000000000000 
2  6 1 7 1 3 -1 2 -1 0
2  6 1 7 1 0
2  7 -1 6 -1 0
1
1.000000000000000 0.000000000000000 0.000000000000000 0.000000000000000 
0.000000000000000 1.000000000000000 0.000000000000000 0.000000000000000 
0.000000000000000 0.000000000000000 1.000000000000000 0.000000000000000 
1
1.000000000000000 0.000000000000000 0.000000000000000 -10.000000000000000 
0.000000000000000 1.000000000000000 0.000000000000000 -18.000000000000000 
0.000000000000000 0.000000000000000 1.000000000000000 0.000000000000000 
2  11 1 12 1 0
2  12 -1 11 -1 0
1
1.000000000000000 0.000000000000000 0.000000000000000 0.000000000000000 
0.000000000000000 1.000000000000000 0.000000000000000 0.000000000000000 
0.000000000000000 0.000000000000000 1.000000000000000 0.000000000000000 
1
1.000000000000000 0.000000000000000 0.000000000000000 -5.000000000000000 
0.000000000000000 1.000000000000000 0.000000000000000 -18.000000000000000 
0.000000000000000 0.000000000000000 1.000000000000000 0.000000000000000 
2  15 1 16 1 0
2  16 -1 15 -1 0
1
1.000000000000000 0.000000000000000 0.000000000000000 0.000000000000000 
0.000000000000000 1.000000000000000 0.000000000000000 0.000000000000000 
0.000000000000000 0.000000000000000 1.000000000000000 0.000000000000000 
1
1.000000000000000 0.000000000000000 0.000000000000000 10.000000000000000 
0.000000000000000 1.000000000000000 0.000000000000000 -13.000000000000000 
0.000000000000000 0.000000000000000 1.000000000000000 0.000000000000000 
2  19 1 20 1 0
2  20 -1 19 -1 0
1
1.000000000000000 0.000000000000000 0.000000000000000 0.000000000000000 
0.000000000000000 1.000000000000000 0.000000000000000 0.000000000000000 
0.000000000000000 0.000000000000000 1.000000000000000 0.000000000000000 
1
1.000000000000000 0.000000000000000 0.000000000000000 5.000000000000000 
0.000000000000000 1.000000000000000 0.000000000000000 -8.000000000000000 
0.000000000000000 0.000000000000000 1.000000000000000 0.000000000000000 
2  23 1 24 1 0
2  24 -1 23 -1 0
1
1.000000000000000 0.000000000000000 0.000000000000000 0.000000000000000 
0.000000000000000 1.000000000000000 0.000000000000000 0.000000000000000 
0.000000000000000 0.000000000000000 1.000000000000000 0.000000000000000 
1
1.000000000000000 0.000000000000000 0.000000000000000 0.000000000000000 
0.000000000000000 1.000000000000000 0.000000000000000 -13.000000000000000 
0.000000000000000 0.000000000000000 1.000000000000000 0.000000000000000 
2  27 1 28 1 0
2  28 -1 27 -1 0
Curve2ds 108
1 0.00000000000000000 0.00000000000000000 1.00000000000000000 0.00000000000000000 
1 0.00000000000000000 0.00000000000000000 1.00000000000000000 0.00000000000000000 
1 10.00000000000000000 0.00000000000000000 0.00000000000000000 -1.00000000000000000 
1 0.00000000000000000 0.00000000000000000 0.00000000000000000 1.00000000000000000 
1 0.00000000000000000 -5.00000000000000000 1.00000000000000000 0.00000000000000000 
1 0.00000000000000000 0.00000000000000000 1.00000000000000000 0.00000000000000000 
1 0.00000000000000000 0.00000000000000000 0.00000000000000000 -1.00000000000000000 
1 0.00000000000000000 0.00000000000000000 0.00000000000000000 1.00000000000000000 
1 0.00000000000000000 0.00000000000000000 0.00000000000000000 1.00000000000000000 
1 0.00000000000000000 0.00000000000000000 1.00000000000000000 0.00000000000000000 
1 0.00000000000000000 0.00000000000000000 1.00000000000000000 0.00000000000000000 
1 0.00000000000000000 5.00000000000000000 1.00000000000000000 0.00000000000000000 
1 10.00000000000000000 0.00000000000000000 0.00000000000000000 1.00000000000000000 
1 0.00000000000000000 0.00000000000000000 1.00000000000000000 0.00000000000000000 
1 10.00000000000000000 0.00000000000000000 0.00000000000000000 1.00000000000000000 
1 0.00000000000000000 5.00000000000000000 1.00000000000000000 0.00000000000000000 
1 10.00000000000000000 0.00000000000000000 0.00000000000000000 -1.00000000000000000 
1 5.00000000000000000 0.00000000000000000 0.00000000000000000 1.00000000000000000 
1 0.00000000000000000 0.00000000000000000 0.00000000000000000 1.00000000000000000 
1 0.00000000000000000 5.00000000000000000 1.00000000000000000 0.00000000000000000 
1 0.00000000000000000 -5.00000000000000000 1.00000000000000000 0.00000000000000000 
1 0.00000000000000000 5.00000000000000000 1.00000000000000000 0.00000000000000000 
1 0.00000000000000000 0.00000000000000000 1.00000000000000000 0.00000000000000000 
1 0.00000000000000000 0.00000000000000000 1.00000000000000000 0.00000000000000000 
1 0.00000000000000000 0.00000000000000000 0.00000000000000000 -1.00000000000000000 
1 5.00000000000000000 0.00000000000000000 0.00000000000000000 1.00000000000000000 
1 10.00000000000000000 0.00000000000000000 0.00000000000000000 -1.00000000000000000 
1 0.00000000000000000 0.00000000000000000 0.00000000000000000 1.00000000000000000 
1 -15.27777777777777857 -2.22222222222222143 0.00000000000000000 1.00000000000000000 
1 0.00000000000000000 -5.00000000000000000 1.00000000000000000 0.00000000000000000 
1 0.00000000000000000 0.00000000000000000 1.00000000000000000 0.00000000000000000 
1 0.00000000000000000 0.00000000000000000 0.00000000000000000 -1.00000000000000000 
1 0.00000000000000000 0.00000000000000000 0.00000000000000000 1.00000000000000000 
1 15.27777777777777857 -2.22222222222222143 0.00000000000000000 1.00000000000000000 
1 0.00000000000000000 0.00000000000000000 0.00000000000000000 1.00000000000000000 
1 0.00000000000000000 0.00000000000000000 1.00000000000000000 0.00000000000000000 
1 15.27777777777777857 -2.22222222222222143 -1.00000000000000000 0.00000000000000000 
1 0.00000000000000000 0.00000000000000000 1.00000000000000000 0.00000000000000000 
1 0.00000000000000000 5.00000000000000000 1.00000000000000000 0.00000000000000000 
1 10.00000000000000000 0.00000000000000000 0.00000000000000000 1.00000000000000000 
1 0.00000000000000000 0.00000000000000000 1.00000000000000000 0.00000000000000000 
1 -15.27777777777777857 -2.22222222222222143 1.00000000000000000 0.00000000000000000 
1 0.00000000000000000 0.00000000000000000 1.00000000000000000 0.00000000000000000 
1 0.00000000000000000 0.00000000000000000 1.00000000000000000 0.00000000000000000 
1 10.00000000000000000 0.00000000000000000 0.00000000000000000 -1.00000000000000000 
1 0.00000000000000000 0.00000000000000000 0.00000000000000000 1.00000000000000000 
1 -10.27777777777777857 -7.22222222222222143 0.00000000000000000 1.00000000000000000 
1 0.00000000000000000 0.00000000000000000 0.00000000000000000 -1.00000000000000000 
1 0.00000000000000000 0.00000000000000000 0.00000000000000000 1.00000000000000000 
1 10.27777777777777857 -7.22222222222222143 0.00000000000000000 1.00000000000000000 
1 -10.27777777777777857 -7.22222222222222143 1.00000000000000000 0.00000000000000000 
1 10.00000000000000000 0.00000000000000000 0.00000000000000000 -1.00000000000000000 
1 5.00000000000000000 0.00000000000000000 0.00000000000000000 1.00000000000000000 
1 -0.27777777777777779 -7.22222222222222143 0.00000000000000000 1.00000000000000000 
1 -0.27777777777777779 -2.22222222222222143 1.00000000000000000 0.00000000000000000 
1 10.00000000000000000 0.00000000000000000 0.00000000000000000 -1.00000000000000000 
1 5.00000000000000000 0.00000000000000000 0.00000000000000000 1.00000000000000000 
1 14.72222222222222143 -2.22222222222222143 0.00000000000000000 1.00000000000000000 
1 10.00000000000000000 0.00000000000000000 0.00000000000000000 1.00000000000000000 
1 0.00000000000000000 5.00000000000000000 1.00000000000000000 0.00000000000000000 
1 9.72222222222222143 2.77777777777777857 1.00000000000000000 0.00000000000000000 
1 10.00000000000000000 0.00000000000000000 0.00000000000000000 -1.00000000000000000 
1 5.00000000000000000 0.00000000000000000 0.00000000000000000 1.00000000000000000 
1 9.72222222222222143 2.77777777777777857 0.00000000000000000 1.00000000000000000 
1 10.00000000000000000 0.00000000000000000 0.00000000000000000 1.00000000000000000 
1 0.00000000000000000 5.00000000000000000 1.00000000000000000 0.00000000000000000 
1 4.72222222222222232 7.77777777777777857 1.00000000000000000 0.00000000000000000 
1 10.00000000000000000 0.00000000000000000 0.00000000000000000 -1.00000000000000000 
1 0.00000000000000000 0.00000000000000000 0.00000000000000000 1.00000000000000000 
1 4.72222222222222232 2.77777777777777857 0.00000000000000000 1.00000000000000000 
1 -0.27777777777777779 2.77777777777777857 1.00000000000000000 0.00000000000000000 
1 0.00000000000000000 -5.00000000000000000 1.00000000000000000 0.00000000000000000 
1 0.00000000000000000 5.00000000000000000 1.00000000000000000 0.00000000000000000 
1 0.00000000000000000 -5.00000000000000000 1.00000000000000000 0.00000000000000000 
1 0.00000000000000000 0.00000000000000000 1.00000000000000000 0.00000000000000000 
1 0.00000000000000000 0.00000000000000000 0.00000000000000000 -1.00000000000000000 
1 0.00000000000000000 0.00000000000000000 0.00000000000000000 1.00000000000000000 
1 -4.72222222222222232 2.77777777777777857 0.00000000000000000 1.00000000000000000 
1 0.00000000000000000 0.00000000000000000 0.00000000000000000 1.00000000000000000 
1 0.00000000000000000 5.00000000000000000 1.00000000000000000 0.00000000000000000 
1 -4.72222222222222232 7.77777777777777857 -1.00000000000000000 0.00000000000000000 
1 0.00000000000000000 -5.00000000000000000 1.00000000000000000 0.00000000000000000 
1 0.00000000000000000 5.00000000000000000 1.00000000000000000 0.00000000000000000 
1 0.00000000000000000 -5.00000000000000000 1.00000000000000000 0.00000000000000000 
1 0.00000000000000000 0.00000000000000000 1.00000000000000000 0.00000000000000000 
1 0.00000000000000000 0.00000000000000000 0.00000000000000000 -1.00000000000000000 
1 5.00000000000000000 0.00000000000000000 0.00000000000000000 1.00000000000000000 
1 -9.72222222222222143 2.77777777777777857 0.00000000000000000 1.00000000000000000 
1 0.00000000000000000 0.00000000000000000 0.00000000000000000 1.00000000000000000 
1 0.00000000000000000 5.00000000000000000 1.00000000000000000 0.00000000000000000 
1 -9.72222222222222143 2.77777777777777857 -1.00000000000000000 0.00000000000000000 
1 0.00000000000000000 -5.00000000000000000 1.00000000000000000 0.00000000000000000 
1 0.00000000000000000 5.00000000000000000 1.00000000000000000 0.00000000000000000 
1 0.00000000000000000 0.00000000000000000 1.00000000000000000 0.00000000000000000 
1 0.00000000000000000 5.00000000000000000 1.00000000000000000 0.00000000000000000 
1 0.00000000000000000 0.00000000000000000 0.00000000000000000 -1.00000000000000000 
1 5.00000000000000000 0.00000000000000000 0.00000000000000000 1.00000000000000000 
1 -14.72222222222222143 -2.22222222222222143 0.00000000000000000 1.00000000000000000 
1 0.27777777777777779 -2.22222222222222143 -1.00000000000000000 0.00000000000000000 
1 0.00000000000000000 -5.00000000000000000 1.00000000000000000 0.00000000000000000 
1 0.00000000000000000 5.00000000000000000 1.00000000000000000 0.00000000000000000 
1 0.00000000000000000 0.00000000000000000 1.00000000000000000 0.00000000000000000 
1 0.00000000000000000 5.00000000000000000 1.00000000000000000 0.00000000000000000 
1 0.00000000000000000 0.00000000000000000 0.00000000000000000 -1.00000000000000000 
1 5.00000000000000000 0.00000000000000000 0.00000000000000000 1.00000000000000000 
1 0.27777777777777779 -7.22222222222222143 0.00000000000000000 1.00000000000000000 
1 0.27777777777777779 2.77777777777777857 -1.00000000000000000 0.00000000000000000 
1 5.27777777777777768 -7.22222222222222143 -1.00000000000000000 0.00000000000000000 
Curves 47
1 0.00000000000000000 0.00000000000000000 0.00000000000000000 0.00000000000000000 0.00000000000000000 1.00000000000000000 
1 0.00000000000000000 0.00000000000000000 10.00000000000000000 -0.00000000000000000 1.00000000000000000 0.00000000000000000 
1 0.00000000000000000 5.00000000000000000 0.00000000000000000 0.00000000000000000 0.00000000000000000 1.00000000000000000 
1 0.00000000000000000 0.00000000000000000 0.00000000000000000 -0.00000000000000000 1.00000000000000000 0.00000000000000000 
1 0.00000000000000000 0.00000000000000000 0.00000000000000000 1.00000000000000000 0.00000000000000000 -0.00000000000000000 
1 5.00000000000000000 0.00000000000000000 0.00000000000000000 0.00000000000000000 0.00000000000000000 1.00000000000000000 
1 0.00000000000000000 0.00000000000000000 10.00000000000000000 1.00000000000000000 0.00000000000000000 -0.00000000000000000 
1 0.00000000000000000 5.00000000000000000 10.00000000000000000 1.00000000000000000 0.00000000000000000 -0.00000000000000000 
1 5.00000000000000000 0.00000000000000000 10.00000000000000000 -0.00000000000000000 1.00000000000000000 0.00000000000000000 
1 0.00000000000000000 5.00000000000000000 0.00000000000000000 1.00000000000000000 0.00000000000000000 -0.00000000000000000 
1 5.00000000000000000 5.00000000000000000 0.00000000000000000 0.00000000000000000 0.00000000000000000 1.00000000000000000 
1 5.00000000000000000 0.00000000000000000 0.00000000000000000 -0.00000000000000000 1.00000000000000000 0.00000000000000000 
1 0.00000000000000000 0.00000000000000000 10.00000000000000000 -0.00000000000000000 1.00000000000000000 0.00000000000000000 
1 0.00000000000000000 5.00000000000000000 0.00000000000000000 0.00000000000000000 0.00000000000000000 1.00000000000000000 
1 0.00000000000000000 0.00000000000000000 0.00000000000000000 -0.00000000000000000 1.00000000000000000 0.00000000000000000 
1 0.00000000000000000 0.00000000000000000 0.00000000000000000 1.00000000000000000 0.00000000000000000 -0.00000000000000000 
1 5.00000000000000000 0.00000000000000000 0.00000000000000000 0.00000000000000000 0.00000000000000000 1.00000000000000000 
1 0.00000000000000000 0.00000000000000000 10.00000000000000000 1.00000000000000000 0.00000000000000000 -0.00000000000000000 
1 0.00000000000000000 0.00000000000000000 0.00000000000000000 0.00000000000000000 0.00000000000000000 1.00000000000000000 
1 0.00000000000000000 0.00000000000000000 10.00000000000000000 -0.00000000000000000 1.00000000000000000 0.00000000000000000 
1 0.00000000000000000 0.00000000000000000 0.00000000000000000 -0.00000000000000000 1.00000000000000000 0.00000000000000000 
1 -10.00000000000000000 -18.00000000000000000 10.00000000000000000 1.00000000000000000 0.00000000000000000 0.00000000000000000 
1 5.00000000000000000 0.00000000000000000 10.00000000000000000 -0.00000000000000000 1.00000000000000000 0.00000000000000000 
1 0.00000000000000000 -13.00000000000000000 10.00000000000000000 1.00000000000000000 0.00000000000000000 0.00000000000000000 
1 5.00000000000000000 0.00000000000000000 10.00000000000000000 -0.00000000000000000 1.00000000000000000 0.00000000000000000 
1 0.00000000000000000 5.00000000000000000 10.00000000000000000 1.00000000000000000 0.00000000000000000 -0.00000000000000000 
1 5.00000000000000000 0.00000000000000000 10.00000000000000000 -0.00000000000000000 1.00000000000000000 0.00000000000000000 
1 0.00000000000000000 5.00000000000000000 10.00000000000000000 1.00000000000000000 0.00000000000000000 -0.00000000000000000 
1 0.00000000000000000 0.00000000000000000 10.00000000000000000 -0.00000000000000000 1.00000000000000000 0.00000000000000000 
1 0.00000000000000000 -8.00000000000000000 10.00000000000000000 1.00000000000000000 0.00000000000000000 0.00000000000000000 
1 5.00000000000000000 5.00000000000000000 0.00000000000000000 0.00000000000000000 0.00000000000000000 1.00000000000000000 
1 0.00000000000000000 5.00000000000000000 0.00000000000000000 0.00000000000000000 0.00000000000000000 1.00000000000000000 
1 0.00000000000000000 0.00000000000000000 0.00000000000000000 -0.00000000000000000 1.00000000000000000 0.00000000000000000 
1 0.00000000000000000 5.00000000000000000 0.00000000000000000 1.00000000000000000 0.00000000000000000 -0.00000000000000000 
1 5.00000000000000000 5.00000000000000000 0.00000000000000000 0.00000000000000000 0.00000000000000000 1.00000000000000000 
1 0.00000000000000000 5.00000000000000000 0.00000000000000000 0.00000000000000000 0.00000000000000000 1.00000000000000000 
1 5.00000000000000000 0.00000000000000000 0.00000000000000000 -0.00000000000000000 1.00000000000000000 0.00000000000000000 
1 0.00000000000000000 5.00000000000000000 0.00000000000000000 1.00000000000000000 0.00000000000000000 -0.00000000000000000 
1 5.00000000000000000 5.00000000000000000 0.00000000000000000 0.00000000000000000 0.00000000000000000 1.00000000000000000 
1 5.00000000000000000 0.00000000000000000 0.00000000000000000 0.00000000000000000 0.00000000000000000 1.00000000000000000 
1 5.00000000000000000 0.00000000000000000 0.00000000000000000 -0.00000000000000000 1.00000000000000000 0.00000000000000000 
1 0.00000000000000000 -13.00000000000000000 0.00000000000000000 1.00000000000000000 0.00000000000000000 0.00000000000000000 
1 5.00000000000000000 5.00000000000000000 0.00000000000000000 0.00000000000000000 0.00000000000000000 1.00000000000000000 
1 5.00000000000000000 0.00000000000000000 0.00000000000000000 0.00000000000000000 0.00000000000000000 1.00000000000000000 
1 5.00000000000000000 0.00000000000000000 0.00000000000000000 -0.00000000000000000 1.00000000000000000 0.00000000000000000 
1 0.00000000000000000 -8.00000000000000000 0.00000000000000000 1.00000000000000000 0.00000000000000000 0.00000000000000000 
1 -5.00000000000000000 -18.00000000000000000 0.00000000000000000 1.00000000000000000 0.00000000000000000 0.00000000000000000 
Polygon3D 0
PolygonOnTriangulations 0
Surfaces 39
1 0.00000000000000000 0.00000000000000000 0.00000000000000000 1.00000000000000000 0.00000000000000000 -0.00000000000000000 0.00000000000000000 0.00000000000000000 1.00000000000000000 0.00000000000000000 -1.00000000000000000 0.00000000000000000 
1 0.00000000000000000 0.00000000000000000 0.00000000000000000 -0.00000000000000000 1.00000000000000000 0.00000000000000000 0.00000000000000000 0.00000000000000000 1.00000000000000000 1.00000000000000000 0.00000000000000000 -0.00000000000000000 
1 0.00000000000000000 0.00000000000000000 10.00000000000000000 0.00000000000000000 0.00000000000000000 1.00000000000000000 1.00000000000000000 0.00000000000000000 -0.00000000000000000 -0.00000000000000000 1.00000000000000000 0.00000000000000000 
1 0.00000000000000000 5.00000000000000000 0.00000000000000000 -0.00000000000000000 1.00000000000000000 0.00000000000000000 0.00000000000000000 0.00000000000000000 1.00000000000000000 1.00000000000000000 0.00000000000000000 -0.00000000000000000 
1 0.00000000000000000 0.00000000000000000 0.00000000000000000 0.00000000000000000 0.00000000000000000 1.00000000000000000 1.00000000000000000 0.00000000000000000 -0.00000000000000000 -0.00000000000000000 1.00000000000000000 0.00000000000000000 
1 5.00000000000000000 0.00000000000000000 0.00000000000000000 1.00000000000000000 0.00000000000000000 -0.00000000000000000 0.00000000000000000 0.00000000000000000 1.00000000000000000 0.00000000000000000 -1.00000000000000000 0.00000000000000000 
1 0.00000000000000000 0.00000000000000000 0.00000000000000000 1.00000000000000000 0.00000000000000000 -0.00000000000000000 0.00000000000000000 0.00000000000000000 1.00000000000000000 0.00000000000000000 -1.00000000000000000 0.00000000000000000 
1 0.00000000000000000 0.00000000000000000 0.00000000000000000 -0.00000000000000000 1.00000000000000000 0.00000000000000000 0.00000000000000000 0.00000000000000000 1.00000000000000000 1.00000000000000000 0.00000000000000000 -0.00000000000000000 
1 0.00000000000000000 0.00000000000000000 10.00000000000000000 0.00000000000000000 0.00000000000000000 1.00000000000000000 1.00000000000000000 0.00000000000000000 -0.00000000000000000 -0.00000000000000000 1.00000000000000000 0.00000000000000000 
1 0.27777777777777779 -10.77777777777777857 10.00000000000000000 0.00000000000000000 0.00000000000000000 1.00000000000000000 1.00000000000000000 0.00000000000000000 -0.00000000000000000 -0.00000000000000000 1.00000000000000000 0.00000000000000000 
1 0.00000000000000000 5.00000000000000000 0.00000000000000000 -0.00000000000000000 1.00000000000000000 0.00000000000000000 0.00000000000000000 0.00000000000000000 1.00000000000000000 1.00000000000000000 0.00000000000000000 -0.00000000000000000 
1 0.00000000000000000 0.00000000000000000 0.00000000000000000 0.00000000000000000 0.00000000000000000 1.00000000000000000 1.00000000000000000 0.00000000000000000 -0.00000000000000000 -0.00000000000000000 1.00000000000000000 0.00000000000000000 
1 0.27777777777777779 -10.77777777777777857 0.00000000000000000 -0.00000000000000000 -0.00000000000000000 -1.00000000000000000 -1.00000000000000000 0.00000000000000000 0.00000000000000000 0.00000000000000000 1.00000000000000000 -0.00000000000000000 
1 5.00000000000000000 0.00000000000000000 0.00000000000000000 1.00000000000000000 0.00000000000000000 -0.00000000000000000 0.00000000000000000 0.00000000000000000 1.00000000000000000 0.00000000000000000 -1.00000000000000000 0.00000000000000000 
1 0.00000000000000000 0.00000000000000000 0.00000000000000000 1.00000000000000000 0.00000000000000000 -0.00000000000000000 0.00000000000000000 0.00000000000000000 1.00000000000000000 0.00000000000000000 -1.00000000000000000 0.00000000000000000 
1 0.00000000000000000 0.00000000000000000 0.00000000000000000 -0.00000000000000000 1.00000000000000000 0.00000000000000000 0.00000000000000000 0.00000000000000000 1.00000000000000000 1.00000000000000000 0.00000000000000000 -0.00000000000000000 
1 0.00000000000000000 0.00000000000000000 10.00000000000000000 0.00000000000000000 0.00000000000000000 1.00000000000000000 1.00000000000000000 0.00000000000000000 -0.00000000000000000 -0.00000000000000000 1.00000000000000000 0.00000000000000000 
1 0.00000000000000000 0.00000000000000000 0.00000000000000000 0.00000000000000000 0.00000000000000000 1.00000000000000000 1.00000000000000000 0.00000000000000000 -0.00000000000000000 -0.00000000000000000 1.00000000000000000 0.00000000000000000 
1 5.00000000000000000 0.00000000000000000 0.00000000000000000 1.00000000000000000 0.00000000000000000 -0.00000000000000000 0.00000000000000000 0.00000000000000000 1.00000000000000000 0.00000000000000000 -1.00000000000000000 0.00000000000000000 
1 0.00000000000000000 0.00000000000000000 10.00000000000000000 0.00000000000000000 0.00000000000000000 1.00000000000000000 1.00000000000000000 0.00000000000000000 -0.00000000000000000 -0.00000000000000000 1.00000000000000000 0.00000000000000000 
1 5.00000000000000000 0.00000000000000000 0.00000000000000000 1.00000000000000000 0.00000000000000000 -0.00000000000000000 0.00000000000000000 0.00000000000000000 1.00000000000000000 0.00000000000000000 -1.00000000000000000 0.00000000000000000 
1 0.00000000000000000 0.00000000000000000 10.00000000000000000 0.00000000000000000 0.00000000000000000 1.00000000000000000 1.00000000000000000 0.00000000000000000 -0.00000000000000000 -0.00000000000000000 1.00000000000000000 0.00000000000000000 
1 0.00000000000000000 5.00000000000000000 0.00000000000000000 -0.00000000000000000 1.00000000000000000 0.00000000000000000 0.00000000000000000 0.00000000000000000 1.00000000000000000 1.00000000000000000 0.00000000000000000 -0.00000000000000000 
1 5.00000000000000000 0.00000000000000000 0.00000000000000000 1.00000000000000000 0.00000000000000000 -0.00000000000000000 0.00000000000000000 0.00000000000000000 1.00000000000000000 0.00000000000000000 -1.00000000000000000 0.00000000000000000 
1 0.00000000000000000 0.00000000000000000 10.00000000000000000 0.00000000000000000 0.00000000000000000 1.00000000000000000 1.00000000000000000 0.00000000000000000 -0.00000000000000000 -0.00000000000000000 1.00000000000000000 0.00000000000000000 
1 0.00000000000000000 5.00000000000000000 0.00000000000000000 -0.00000000000000000 1.00000000000000000 0.00000000000000000 0.00000000000000000 0.00000000000000000 1.00000000000000000 1.00000000000000000 0.00000000000000000 -0.00000000000000000 
1 0.00000000000000000 0.00000000000000000 0.00000000000000000 1.00000000000000000 0.00000000000000000 -0.00000000000000000 0.00000000000000000 0.00000000000000000 1.00000000000000000 0.00000000000000000 -1.00000000000000000 0.00000000000000000 
1 5.00000000000000000 0.00000000000000000 0.00000000000000000 1.00000000000000000 0.00000000000000000 -0.00000000000000000 0.00000000000000000 0.00000000000000000 1.00000000000000000 0.00000000000000000 -1.00000000000000000 0.00000000000000000 
1 0.00000000000000000 5.00000000000000000 0.00000000000000000 -0.00000000000000000 1.00000000000000000 0.00000000000000000 0.00000000000000000 0.00000000000000000 1.00000000000000000 1.00000000000000000 0.00000000000000000 -0.00000000000000000 
1 0.00000000000000000 0.00000000000000000 0.00000000000000000 0.00000000000000000 0.00000000000000000 1.00000000000000000 1.00000000000000000 0.00000000000000000 -0.00000000000000000 -0.00000000000000000 1.00000000000000000 0.00000000000000000 
1 0.00000000000000000 0.00000000000000000 0.00000000000000000 1.00000000000000000 0.00000000000000000 -0.00000000000000000 0.00000000000000000 0.00000000000000000 1.00000000000000000 0.00000000000000000 -1.00000000000000000 0.00000000000000000 
1 0.00000000000000000 0.00000000000000000 0.00000000000000000 0.00000000000000000 0.00000000000000000 1.00000000000000000 1.00000000000000000 0.00000000000000000 -0.00000000000000000 -0.00000000000000000 1.00000000000000000 0.00000000000000000 
1 0.00000000000000000 0.00000000000000000 0.00000000000000000 -0.00000000000000000 1.00000000000000000 0.00000000000000000 0.00000000000000000 0.00000000000000000 1.00000000000000000 1.00000000000000000 0.00000000000000000 -0.00000000000000000 
1 7.50000000000000000 -13.00000000000000000 5.00000000000000000 -0.00000000000000000 -1.00000000000000000 -0.00000000000000000 0.00000000000000000 0.00000000000000000 -1.00000000000000000 1.00000000000000000 -0.00000000000000000 0.00000000000000000 
1 0.00000000000000000 5.00000000000000000 0.00000000000000000 -0.00000000000000000 1.00000000000000000 0.00000000000000000 0.00000000000000000 0.00000000000000000 1.00000000000000000 1.00000000000000000 0.00000000000000000 -0.00000000000000000 
1 0.00000000000000000 0.00000000000000000 0.00000000000000000 -0.00000000000000000 1.00000000000000000 0.00000000000000000 0.00000000000000000 0.00000000000000000 1.00000000000000000 1.00000000000000000 0.00000000000000000 -0.00000000000000000 
1 0.00000000000000000 0.00000000000000000 0.00000000000000000 0.00000000000000000 0.00000000000000000 1.00000000000000000 1.00000000000000000 0.00000000000000000 -0.00000000000000000 -0.00000000000000000 1.00000000000000000 0.00000000000000000 
1 -5.00000000000000000 -8.00000000000000000 5.00000000000000000 0.00000000000000000 1.00000000000000000 0.00000000000000000 0.00000000000000000 -0.00000000000000000 1.00000000000000000 1.00000000000000000 0.00000000000000000 -0.00000000000000000 
1 -5.00000000000000000 -18.00000000000000000 5.00000000000000000 -0.00000000000000000 -1.00000000000000000 -0.00000000000000000 0.00000000000000000 0.00000000000000000 -1.00000000000000000 1.00000000000000000 -0.00000000000000000 0.00000000000000000 
Triangulations 0

TShapes 122
Ve
0.000000100000000
0.000000000000000 0.000000000000000 10.000000000000000
0 0

0101101
*
Ve
0.000000100000000
0.000000000000000 0.000000000000000 0.000000000000000
0 0

0101101
*
Ed
 0.000000100000000 1 1 0
1  1 0 0.000000000000000 10.000000000000000
2  1 1 0 0.000000000000000 10.000000000000000
2  2 2 0 0.000000000000000 10.000000000000000
0

0101000
-122 0 +121 0 *
Ve
0.000000100000000
0.000000000000000 5.000000000000000 10.000000000000000
0 0

0101101
*
Ed
 0.000000100000000 1 1 0
1  2 0 0.000000000000000 5.000000000000000
2  3 1 0 0.000000000000000 5.000000000000000
2  4 3 0 0.000000000000000 5.000000000000000
0

0101000
-119 0 +122 0 *
Ve
0.000000100000000
0.000000000000000 5.000000000000000 0.000000000000000
0 0

0101101
*
Ed
 0.000000100000000 1 1 0
1  3 0 0.000000000000000 10.000000000000000
2  5 1 0 0.000000000000000 10.000000000000000
2  6 4 0 0.000000000000000 10.000000000000000
0

0101000
-119 0 +117 0 *
Ed
 0.000000100000000 1 1 0
1  4 0 0.000000000000000 5.000000000000000
2  7 1 0 0.000000000000000 5.000000000000000
2  8 5 0 0.000000000000000 5.000000000000000
0

0101000
-117 0 +121 0 *
Wi

0101100
-120 0 -118 0 +116 0 +115 0 *
Fa
0  0.000000100000000 1 0

0111000
+114 0 *
Ve
0.000000100000000
5.000000000000000 0.000000000000000 0.000000000000000
0 0

0101101
*
Ed
 0.000000100000000 1 1 0
1  5 0 0.000000000000000 5.000000000000000
2  9 2 0 0.000000000000000 5.000000000000000
2  10 5 0 0.000000000000000 5.000000000000000
0

0101000
-112 0 +121 0 *
Ve
0.000000100000000
5.000000000000000 0.000000000000000 10.000000000000000
0 0

0101101
*
Ed
 0.000000100000000 1 1 0
1  6 0 0.000000000000000 10.000000000000000
2  11 6 0 0.000000000000000 10.000000000000000
2  12 2 0 0.000000000000000 10.000000000000000
0

0101000
-110 0 +112 0 *
Ed
 0.000000100000000 1 1 0
1  7 0 0.000000000000000 5.000000000000000
2  13 2 0 0.000000000000000 5.000000000000000
2  14 3 0 0.000000000000000 5.000000000000000
0

0101000
-110 0 +122 0 *
Wi

0101100
-111 0 -109 0 +108 0 +120 0 *
Fa
0  0.000000100000000 2 0

0111000
+107 0 *
Ve
0.000000100000000
-15.000000000000000 -13.000000000000000 10.000000000000000
0 0

0101101
*
Ed
 0.000000100000000 1 1 0
1  8 0 0.000000000000000 5.000000000000000
2  15 4 0 0.000000000000000 5.000000000000000
2  16 3 0 0.000000000000000 5.000000000000000
0

0101000
+119 0 -105 5 *
Ed
 0.000000100000000 1 1 0
1  9 0 0.000000000000000 5.000000000000000
2  17 6 0 0.000000000000000 5.000000000000000
2  18 3 0 0.000000000000000 5.000000000000000
0

0101000
+110 0 -105 5 *
Wi

0101100
-118 4 -104 4 +103 4 +108 4 *
Fa
0  0.000000100000000 3 4

0111000
+102 0 *
Ve
0.000000100000000
-15.000000000000000 -13.000000000000000 0.000000000000000
0 0

0101101
*
Ed
 0.000000100000000 1 1 0
1  10 0 0.000000000000000 5.000000000000000
2  19 4 0 0.000000000000000 5.000000000000000
2  20 5 0 0.000000000000000 5.000000000000000
0

0101000
+117 0 -100 5 *
Ed
 0.000000100000000 1 1 0
1  11 0 0.000000000000000 10.000000000000000
2  21 6 0 0.000000000000000 10.000000000000000
2  22 4 0 0.000000000000000 10.000000000000000
2  23 7 8 0.000000000000000 10.000000000000000
2  24 8 8 0.000000000000000 10.000000000000000
0

0101000
+100 5 -105 5 *
Wi

0101100
-99 4 -98 4 +104 4 +116 4 *
Fa
0  0.000000100000000 4 4

0111000
+97 0 *
Ed
 0.000000100000000 1 1 0
1  12 0 0.000000000000000 5.000000000000000
2  25 6 0 0.000000000000000 5.000000000000000
2  26 5 0 0.000000000000000 5.000000000000000
0

0101000
+112 0 -100 5 *
Wi

0101100
-115 4 -99 4 +95 4 +111 4 *
Fa
0  0.000000100000000 5 4

0111000
+94 0 *
Wi

0101100
-109 4 -103 4 +98 4 +95 4 *
Fa
0  0.000000100000000 6 4

0111000
+92 0 *
Sh

0101100
-113 4 -106 4 +101 0 +96 0 -93 0 +91 0 *
So

0100000
+90 0 *
Ve
0.000000100000000
0.000000000000000 5.000000000000000 10.000000000000000
0 0

0101101
*
Ed
 0.000000100000000 1 1 0
1  13 0 0.000000000000000 5.000000000000000
2  27 7 0 0.000000000000000 5.000000000000000
2  28 9 0 0.000000000000000 5.000000000000000
2  29 10 10 0.000000000000000 5.000000000000000
0

0101000
+105 10 -88 0 *
Ve
0.000000100000000
0.000000000000000 5.000000000000000 0.000000000000000
0 0

0101101
*
Ed
 0.000000100000000 1 1 0
1  14 0 0.000000000000000 10.000000000000000
2  30 7 0 0.000000000000000 10.000000000000000
2  31 11 0 0.000000000000000 10.000000000000000
0

0101000
-88 0 +86 0 *
Ed
 0.000000100000000 1 1 0
1  15 0 0.000000000000000 5.000000000000000
2  32 7 0 0.000000000000000 5.000000000000000
2  33 12 0 0.000000000000000 5.000000000000000
2  34 13 10 0.000000000000000 5.000000000000000
0

0101000
+100 10 -86 0 *
Wi

0101100
-98 4 -87 9 +85 9 +84 9 *
Fa
0  0.000000100000000 7 9

0111000
+83 0 *
Ve
0.000000100000000
-10.000000000000000 -13.000000000000000 0.000000000000000
0 0

0101101
*
Ed
 0.000000100000000 1 1 0
1  16 0 0.000000000000000 5.000000000000000
2  35 8 0 0.000000000000000 5.000000000000000
2  36 12 0 0.000000000000000 5.000000000000000
2  37 13 10 0.000000000000000 5.000000000000000
0

0101000
+100 10 -81 10 *
Ve
0.000000100000000
-10.000000000000000 -13.000000000000000 10.000000000000000
0 0

0101101
*
Ed
 0.000000100000000 1 1 0
1  17 0 0.000000000000000 10.000000000000000
2  38 14 0 0.000000000000000 10.000000000000000
2  39 8 0 0.000000000000000 10.000000000000000
0

0101000
+81 10 -79 10 *
Ed
 0.000000100000000 1 1 0
1  18 0 0.000000000000000 5.000000000000000
2  40 8 0 0.000000000000000 5.000000000000000
2  41 9 0 0.000000000000000 5.000000000000000
2  42 10 10 0.000000000000000 5.000000000000000
0

0101000
+105 10 -79 10 *
Wi

0101100
-80 9 -78 9 +77 9 +98 4 *
Fa
0  0.000000100000000 8 9

0111000
+76 0 *
Ve
0.000000100000000
0.000000000000000 0.000000000000000 10.000000000000000
0 0

0101101
*
Ve
0.000000100000000
0.000000000000000 0.000000000000000 0.000000000000000
0 0

0101101
*
Ed
 0.000000100000000 1 1 0
1  19 0 0.000000000000000 10.000000000000000
2  43 15 0 0.000000000000000 10.000000000000000
2  44 16 0 0.000000000000000 10.000000000000000
0

0101000
-74 0 +73 0 *
Ed
 0.000000100000000 1 1 0
1  20 0 0.000000000000000 5.000000000000000
2  45 15 0 0.000000000000000 5.000000000000000
2  46 17 0 0.000000000000000 5.000000000000000
2  47 10 14 0.000000000000000 5.000000000000000
0

0101000
+74 0 -79 14 *
Ed
 0.000000100000000 1 1 0
1  21 0 0.000000000000000 5.000000000000000
2  48 15 0 0.000000000000000 5.000000000000000
2  49 18 0 0.000000000000000 5.000000000000000
2  50 13 14 0.000000000000000 5.000000000000000
0

0101000
+73 0 -81 14 *
Wi

0101100
-72 13 -71 13 +78 9 +70 13 *
Fa
0  0.000000100000000 15 13

0111000
+69 0 *
Ve
0.000000100000000
5.000000000000000 0.000000000000000 10.000000000000000
0 0

0101101
*
Ed
 0.000000100000000 1 1 0
1  22 0 0.000000000000000 10.000000000000000
2  51 10 0 0.000000000000000 10.000000000000000
0

0101000
+74 13 -67 17 *
Ve
0.000000100000000
0.000000000000000 -13.000000000000000 10.000000000000000
0 0

0101101
*
Ed
 0.000000100000000 1 1 0
1  23 0 0.000000000000000 5.000000000000000
2  52 19 0 0.000000000000000 5.000000000000000
2  53 20 0 0.000000000000000 5.000000000000000
2  54 10 18 0.000000000000000 5.000000000000000
0

0101000
+67 0 -65 18 *
Ve
0.000000100000000
5.000000000000000 0.000000000000000 10.000000000000000
0 0

0101101
*
Ed
 0.000000100000000 1 1 0
1  24 0 0.000000000000000 15.000000000000000
2  55 10 0 0.000000000000000 15.000000000000000
0

0101000
+65 0 -63 21 *
Ve
0.000000100000000
5.000000000000000 5.000000000000000 10.000000000000000
0 0

0101101
*
Ed
 0.000000100000000 1 1 0
1  25 0 0.000000000000000 5.000000000000000
2  56 21 0 0.000000000000000 5.000000000000000
2  57 22 0 0.000000000000000 5.000000000000000
2  58 10 22 0.000000000000000 5.000000000000000
0

0101000
-61 0 +63 0 *
Ve
0.000000100000000
10.000000000000000 -8.000000000000000 10.000000000000000
0 0

0101101
*
Ed
 0.000000100000000 1 1 0
1  26 0 0.000000000000000 5.000000000000000
2  59 23 0 0.000000000000000 5.000000000000000
2  60 22 0 0.000000000000000 5.000000000000000
2  61 10 22 0.000000000000000 5.000000000000000
0

0101000
+59 22 -61 0 *
Ve
0.000000100000000
5.000000000000000 5.000000000000000 10.000000000000000
0 0

0101101
*
Ed
 0.000000100000000 1 1 0
1  27 0 0.000000000000000 5.000000000000000
2  62 24 0 0.000000000000000 5.000000000000000
2  63 25 0 0.000000000000000 5.000000000000000
2  64 10 26 0.000000000000000 5.000000000000000
0

0101000
+59 26 -57 0 *
Ve
0.000000100000000
0.000000000000000 5.000000000000000 10.000000000000000
0 0

0101101
*
Ed
 0.000000100000000 1 1 0
1  28 0 0.000000000000000 5.000000000000000
2  65 26 0 0.000000000000000 5.000000000000000
2  66 25 0 0.000000000000000 5.000000000000000
2  67 10 26 0.000000000000000 5.000000000000000
0

0101000
-57 0 +55 0 *
Ve
0.000000100000000
5.000000000000000 -8.000000000000000 10.000000000000000
0 0

0101101
*
Ed
 0.000000100000000 1 1 0
1  29 0 0.000000000000000 5.000000000000000
2  68 27 0 0.000000000000000 5.000000000000000
2  69 25 0 0.000000000000000 5.000000000000000
2  70 10 26 0.000000000000000 5.000000000000000
0

0101000
+53 26 -55 0 *
Ed
 0.000000100000000 1 1 0
1  30 0 -15.000000000000000 5.000000000000000
2  71 10 0 -15.000000000000000 5.000000000000000
0

0101000
+88 9 -53 0 *
Wi

0101000
-87 9 +77 9 -71 13 +66 0 +64 17 +62 0 +60 21 -58 21 +56 25 -54 25 
-52 25 -51 0 *
Fa
0  0.000000100000000 10 0

0111000
+50 0 *
Ve
0.000000100000000
5.000000000000000 -8.000000000000000 0.000000000000000
0 0

0101101
*
Ed
 0.000000100000000 1 1 0
1  31 0 0.000000000000000 10.000000000000000
2  72 28 0 0.000000000000000 10.000000000000000
2  73 29 0 0.000000000000000 10.000000000000000
0

0101000
+48 30 -53 30 *
Ve
0.000000100000000
0.000000000000000 5.000000000000000 0.000000000000000
0 0

0101101
*
Ed
 0.000000100000000 1 1 0
1  32 0 0.000000000000000 10.000000000000000
2  74 27 0 0.000000000000000 10.000000000000000
2  75 26 0 0.000000000000000 10.000000000000000
0

0101000
-55 0 +46 0 *
Ed
 0.000000100000000 1 1 0
1  33 0 0.000000000000000 5.000000000000000
2  76 27 0 0.000000000000000 5.000000000000000
2  77 30 0 0.000000000000000 5.000000000000000
2  78 13 26 0.000000000000000 5.000000000000000
0

0101000
+48 26 -46 0 *
Wi

0101100
-47 29 -52 25 +45 25 +44 25 *
Fa
0  0.000000100000000 27 25

0111000
+43 0 *
Ve
0.000000100000000
5.000000000000000 5.000000000000000 0.000000000000000
0 0

0101101
*
Ed
 0.000000100000000 1 1 0
1  34 0 0.000000000000000 5.000000000000000
2  79 26 0 0.000000000000000 5.000000000000000
2  80 30 0 0.000000000000000 5.000000000000000
2  81 13 26 0.000000000000000 5.000000000000000
0

0101000
-41 0 +46 0 *
Ed
 0.000000100000000 1 1 0
1  35 0 0.000000000000000 10.000000000000000
2  82 24 0 0.000000000000000 10.000000000000000
2  83 26 0 0.000000000000000 10.000000000000000
0

0101000
-57 0 +41 0 *
Wi

0101100
-40 0 -39 0 +54 0 +45 0 *
Fa
0  0.000000100000000 26 0

0111000
+38 0 *
Ve
0.000000100000000
10.000000000000000 -8.000000000000000 0.000000000000000
0 0

0101101
*
Ed
 0.000000100000000 1 1 0
1  36 0 0.000000000000000 10.000000000000000
2  84 31 0 0.000000000000000 10.000000000000000
2  85 23 0 0.000000000000000 10.000000000000000
0

0101000
+36 22 -59 22 *
Ed
 0.000000100000000 1 1 0
1  37 0 0.000000000000000 5.000000000000000
2  86 24 0 0.000000000000000 5.000000000000000
2  87 30 0 0.000000000000000 5.000000000000000
2  88 13 26 0.000000000000000 5.000000000000000
0

0101000
+36 26 -41 0 *
Wi

0101100
-35 21 -56 25 +39 25 +34 25 *
Fa
0  0.000000100000000 24 25

0111000
+33 0 *
Ve
0.000000100000000
5.000000000000000 5.000000000000000 0.000000000000000
0 0

0101101
*
Ed
 0.000000100000000 1 1 0
1  38 0 0.000000000000000 5.000000000000000
2  89 23 0 0.000000000000000 5.000000000000000
2  90 32 0 0.000000000000000 5.000000000000000
2  91 13 22 0.000000000000000 5.000000000000000
0

0101000
+36 22 -31 0 *
Ed
 0.000000100000000 1 1 0
1  39 0 0.000000000000000 10.000000000000000
2  92 21 0 0.000000000000000 10.000000000000000
2  93 23 0 0.000000000000000 10.000000000000000
0

0101000
-61 0 +31 0 *
Wi

0101100
-30 21 -29 21 +58 21 +35 21 *
Fa
0  0.000000100000000 23 21

0111000
+28 0 *
Ve
0.000000100000000
5.000000000000000 0.000000000000000 0.000000000000000
0 0

0101101
*
Ed
 0.000000100000000 1 1 0
1  40 0 0.000000000000000 10.000000000000000
2  94 21 0 0.000000000000000 10.000000000000000
2  95 33 0 0.000000000000000 10.000000000000000
0

0101000
-63 0 +26 0 *
Ed
 0.000000100000000 1 1 0
1  41 0 0.000000000000000 5.000000000000000
2  96 21 0 0.000000000000000 5.000000000000000
2  97 32 0 0.000000000000000 5.000000000000000
2  98 13 22 0.000000000000000 5.000000000000000
0

0101000
-31 0 +26 0 *
Wi

0101100
-25 0 -60 0 +29 0 +24 0 *
Fa
0  0.000000100000000 21 0

0111000
+23 0 *
Ve
0.000000100000000
0.000000000000000 -13.000000000000000 0.000000000000000
0 0

0101101
*
Ed
 0.000000100000000 1 1 0
1  42 0 0.000000000000000 15.000000000000000
2  99 13 0 0.000000000000000 15.000000000000000
0

0101000
+21 0 -26 21 *
Ed
 0.000000100000000 1 1 0
1  43 0 0.000000000000000 10.000000000000000
2  100 19 0 0.000000000000000 10.000000000000000
2  101 35 0 0.000000000000000 10.000000000000000
0

0101000
+21 18 -65 18 *
Wi

0101000
+20 0 +25 21 -62 0 -19 17 *
Fa
0  0.000000100000000 34 0

0111000
+18 0 *
Ve
0.000000100000000
5.000000000000000 0.000000000000000 0.000000000000000
0 0

0101101
*
Ed
 0.000000100000000 1 1 0
1  44 0 0.000000000000000 10.000000000000000
2  102 19 0 0.000000000000000 10.000000000000000
2  103 36 0 0.000000000000000 10.000000000000000
0

0101000
-67 0 +16 0 *
Ed
 0.000000100000000 1 1 0
1  45 0 0.000000000000000 5.000000000000000
2  104 19 0 0.000000000000000 5.000000000000000
2  105 37 0 0.000000000000000 5.000000000000000
2  106 13 18 0.000000000000000 5.000000000000000
0

0101000
+16 0 -21 18 *
Wi

0101100
-15 17 -64 17 +19 17 +14 17 *
Fa
0  0.000000100000000 19 17

0111000
+13 0 *
Ed
 0.000000100000000 1 1 0
1  46 0 -15.000000000000000 5.000000000000000
2  107 13 0 -15.000000000000000 5.000000000000000
0

0101000
+86 9 -48 0 *
Wi

0101000
+85 9 +51 0 -47 29 -11 0 *
Fa
0  0.000000100000000 38 0

0111000
+10 0 *
Ed
 0.000000100000000 1 1 0
1  47 0 -5.000000000000000 5.000000000000000
2  108 13 0 -5.000000000000000 5.000000000000000
0

0101000
+73 13 -16 17 *
Wi

0101000
+84 9 +11 0 +44 25 +40 25 -34 25 +30 21 -24 21 -20 0 -14 17 -8 0 
+70 13 -80 9 *
Fa
0  0.000000100000000 13 0

0111000
+7 0 *
Wi

0101000
+8 0 +15 17 -66 0 -72 13 *
Fa
0  0.000000100000000 39 0

0111000
+5 0 *
Sh

0101000
-82 0 -75 0 -68 0 +49 0 -42 0 +37 25 +32 0 +27 0 +22 21 +17 0 
+12 0 +9 0 +6 0 +4 0 *
So

0100000
+3 0 *
Co

1100000
+89 0 +2 0 *

+1 1 