
CASCADE Topology V1, (c) Matra-Datavision
Locations 9
1
1.000000000000000 0.000000000000000 0.000000000000000 -386.000000000000000 
0.000000000000000 1.000000000000000 0.000000000000000 115.000000000000000 
0.000000000000000 0.000000000000000 1.000000000000000 0.000000000000000 
1
1.000000000000000 0.000000000000000 0.000000000000000 0.000000000000000 
0.000000000000000 1.000000000000000 0.000000000000000 0.000000000000000 
0.000000000000000 0.000000000000000 1.000000000000000 0.000000000000000 
1
1.000000000000000 0.000000000000000 0.000000000000000 0.000000000000000 
0.000000000000000 1.000000000000000 0.000000000000000 0.000000000000000 
0.000000000000000 0.000000000000000 1.000000000000000 0.000000000000000 
2  2 1 3 1 0
2  3 -1 2 -1 0
1
1.000000000000000 0.000000000000000 0.000000000000000 0.000000000000000 
0.000000000000000 1.000000000000000 0.000000000000000 0.000000000000000 
0.000000000000000 0.000000000000000 1.000000000000000 0.000000000000000 
1
1.000000000000000 0.000000000000000 0.000000000000000 50.000000000000000 
0.000000000000000 1.000000000000000 0.000000000000000 0.000000000000000 
0.000000000000000 0.000000000000000 1.000000000000000 0.000000000000000 
2  6 1 7 1 0
2  7 -1 6 -1 0
Curve2ds 40
1 0.00000000000000000 0.00000000000000000 1.00000000000000000 0.00000000000000000 
1 0.00000000000000000 0.00000000000000000 1.00000000000000000 0.00000000000000000 
1 170.00000000000000000 0.00000000000000000 0.00000000000000000 -1.00000000000000000 
1 0.00000000000000000 0.00000000000000000 0.00000000000000000 1.00000000000000000 
1 0.00000000000000000 -50.00000000000000000 1.00000000000000000 0.00000000000000000 
1 0.00000000000000000 0.00000000000000000 1.00000000000000000 0.00000000000000000 
1 0.00000000000000000 0.00000000000000000 0.00000000000000000 -1.00000000000000000 
1 0.00000000000000000 0.00000000000000000 0.00000000000000000 1.00000000000000000 
1 170.00000000000000000 0.00000000000000000 0.00000000000000000 1.00000000000000000 
1 0.00000000000000000 50.00000000000000000 1.00000000000000000 0.00000000000000000 
1 170.00000000000000000 0.00000000000000000 0.00000000000000000 -1.00000000000000000 
1 69.00000000000000000 0.00000000000000000 0.00000000000000000 1.00000000000000000 
1 170.00000000000000000 0.00000000000000000 0.00000000000000000 1.00000000000000000 
1 0.00000000000000000 0.00000000000000000 1.00000000000000000 0.00000000000000000 
1 0.00000000000000000 0.00000000000000000 0.00000000000000000 1.00000000000000000 
1 0.00000000000000000 50.00000000000000000 1.00000000000000000 0.00000000000000000 
1 0.00000000000000000 -50.00000000000000000 1.00000000000000000 0.00000000000000000 
1 0.00000000000000000 69.00000000000000000 1.00000000000000000 0.00000000000000000 
1 0.00000000000000000 0.00000000000000000 1.00000000000000000 0.00000000000000000 
1 0.00000000000000000 69.00000000000000000 1.00000000000000000 0.00000000000000000 
1 0.00000000000000000 0.00000000000000000 0.00000000000000000 -1.00000000000000000 
1 69.00000000000000000 0.00000000000000000 0.00000000000000000 1.00000000000000000 
8 0.00000000000000000 75.00000000000000000
1 0.00000000000000000 -10.00000000000000000 1.00000000000000000 0.00000000000000000 
8 0.00000000000000000 75.00000000000000000
1 0.00000000000000000 19.00000000000000000 1.00000000000000000 0.00000000000000000 
8 -10.00000000000000000 0.00000000000000000
1 75.00000000000000000 0.00000000000000000 0.00000000000000000 1.00000000000000000 
8 -10.00000000000000000 0.00000000000000000
1 19.00000000000000000 0.00000000000000000 0.00000000000000000 -1.00000000000000000 
1 0.00000000000000000 0.00000000000000000 0.00000000000000000 1.00000000000000000 
1 0.00000000000000000 10.00000000000000000 1.00000000000000000 0.00000000000000000 
1 0.00000000000000000 -10.00000000000000000 1.00000000000000000 0.00000000000000000 
1 0.00000000000000000 58.00000000000000000 1.00000000000000000 0.00000000000000000 
1 75.00000000000000000 0.00000000000000000 0.00000000000000000 1.00000000000000000 
1 0.00000000000000000 10.00000000000000000 1.00000000000000000 0.00000000000000000 
1 75.00000000000000000 0.00000000000000000 0.00000000000000000 -1.00000000000000000 
1 58.00000000000000000 0.00000000000000000 0.00000000000000000 1.00000000000000000 
1 75.00000000000000000 0.00000000000000000 0.00000000000000000 1.00000000000000000 
1 0.00000000000000000 0.00000000000000000 1.00000000000000000 0.00000000000000000 
1 0.00000000000000000 0.00000000000000000 1.00000000000000000 0.00000000000000000 
1 0.00000000000000000 58.00000000000000000 1.00000000000000000 0.00000000000000000 
1 0.00000000000000000 0.00000000000000000 0.00000000000000000 -1.00000000000000000 
1 58.00000000000000000 0.00000000000000000 0.00000000000000000 1.00000000000000000 
Curves 21
1 0.00000000000000000 0.00000000000000000 0.00000000000000000 0.00000000000000000 0.00000000000000000 1.00000000000000000 
1 0.00000000000000000 0.00000000000000000 170.00000000000000000 -0.00000000000000000 1.00000000000000000 0.00000000000000000 
1 0.00000000000000000 50.00000000000000000 0.00000000000000000 0.00000000000000000 0.00000000000000000 1.00000000000000000 
1 0.00000000000000000 0.00000000000000000 0.00000000000000000 -0.00000000000000000 1.00000000000000000 0.00000000000000000 
1 0.00000000000000000 50.00000000000000000 170.00000000000000000 1.00000000000000000 0.00000000000000000 -0.00000000000000000 
1 69.00000000000000000 0.00000000000000000 170.00000000000000000 -0.00000000000000000 1.00000000000000000 0.00000000000000000 
1 0.00000000000000000 0.00000000000000000 170.00000000000000000 1.00000000000000000 0.00000000000000000 -0.00000000000000000 
1 0.00000000000000000 50.00000000000000000 0.00000000000000000 1.00000000000000000 0.00000000000000000 -0.00000000000000000 
1 69.00000000000000000 50.00000000000000000 0.00000000000000000 0.00000000000000000 0.00000000000000000 1.00000000000000000 
1 69.00000000000000000 0.00000000000000000 0.00000000000000000 0.00000000000000000 0.00000000000000000 1.00000000000000000 
1 69.00000000000000000 0.00000000000000000 0.00000000000000000 -0.00000000000000000 1.00000000000000000 0.00000000000000000 
1 69.00000000000000000 10.00000000000000000 0.00000000000000000 0.00000000000000000 0.00000000000000000 1.00000000000000000 
1 69.00000000000000000 0.00000000000000000 75.00000000000000000 0.00000000000000000 -1.00000000000000000 0.00000000000000000 
1 0.00000000000000000 10.00000000000000000 0.00000000000000000 1.00000000000000000 0.00000000000000000 -0.00000000000000000 
1 58.00000000000000000 10.00000000000000000 0.00000000000000000 0.00000000000000000 0.00000000000000000 1.00000000000000000 
1 0.00000000000000000 10.00000000000000000 75.00000000000000000 1.00000000000000000 0.00000000000000000 -0.00000000000000000 
1 58.00000000000000000 0.00000000000000000 75.00000000000000000 -0.00000000000000000 1.00000000000000000 0.00000000000000000 
1 0.00000000000000000 0.00000000000000000 75.00000000000000000 1.00000000000000000 0.00000000000000000 -0.00000000000000000 
1 58.00000000000000000 0.00000000000000000 0.00000000000000000 0.00000000000000000 0.00000000000000000 1.00000000000000000 
1 58.00000000000000000 0.00000000000000000 0.00000000000000000 -0.00000000000000000 1.00000000000000000 0.00000000000000000 
1 0.00000000000000000 0.00000000000000000 0.00000000000000000 1.00000000000000000 0.00000000000000000 0.00000000000000000 
Polygon3D 0
PolygonOnTriangulations 0
Surfaces 13
1 0.00000000000000000 0.00000000000000000 0.00000000000000000 1.00000000000000000 0.00000000000000000 -0.00000000000000000 0.00000000000000000 0.00000000000000000 1.00000000000000000 0.00000000000000000 -1.00000000000000000 0.00000000000000000 
1 0.00000000000000000 0.00000000000000000 0.00000000000000000 -0.00000000000000000 1.00000000000000000 0.00000000000000000 0.00000000000000000 0.00000000000000000 1.00000000000000000 1.00000000000000000 0.00000000000000000 -0.00000000000000000 
1 0.00000000000000000 0.00000000000000000 170.00000000000000000 0.00000000000000000 0.00000000000000000 1.00000000000000000 1.00000000000000000 0.00000000000000000 -0.00000000000000000 -0.00000000000000000 1.00000000000000000 0.00000000000000000 
1 0.00000000000000000 50.00000000000000000 0.00000000000000000 -0.00000000000000000 1.00000000000000000 0.00000000000000000 0.00000000000000000 0.00000000000000000 1.00000000000000000 1.00000000000000000 0.00000000000000000 -0.00000000000000000 
1 0.00000000000000000 0.00000000000000000 0.00000000000000000 0.00000000000000000 0.00000000000000000 1.00000000000000000 1.00000000000000000 0.00000000000000000 -0.00000000000000000 -0.00000000000000000 1.00000000000000000 0.00000000000000000 
1 69.00000000000000000 0.00000000000000000 0.00000000000000000 1.00000000000000000 0.00000000000000000 -0.00000000000000000 0.00000000000000000 0.00000000000000000 1.00000000000000000 0.00000000000000000 -1.00000000000000000 0.00000000000000000 
1 0.00000000000000000 10.00000000000000000 0.00000000000000000 -0.00000000000000000 1.00000000000000000 0.00000000000000000 0.00000000000000000 0.00000000000000000 1.00000000000000000 1.00000000000000000 0.00000000000000000 -0.00000000000000000 
1 0.00000000000000000 0.00000000000000000 75.00000000000000000 0.00000000000000000 0.00000000000000000 1.00000000000000000 1.00000000000000000 0.00000000000000000 -0.00000000000000000 -0.00000000000000000 1.00000000000000000 0.00000000000000000 
1 0.00000000000000000 0.00000000000000000 0.00000000000000000 0.00000000000000000 0.00000000000000000 1.00000000000000000 1.00000000000000000 0.00000000000000000 -0.00000000000000000 -0.00000000000000000 1.00000000000000000 0.00000000000000000 
1 58.00000000000000000 0.00000000000000000 0.00000000000000000 1.00000000000000000 0.00000000000000000 -0.00000000000000000 0.00000000000000000 0.00000000000000000 1.00000000000000000 0.00000000000000000 -1.00000000000000000 0.00000000000000000 
1 0.00000000000000000 0.00000000000000000 0.00000000000000000 -0.00000000000000000 1.00000000000000000 0.00000000000000000 0.00000000000000000 0.00000000000000000 1.00000000000000000 1.00000000000000000 0.00000000000000000 -0.00000000000000000 
1 47.33633093525180158 0.00000000000000000 78.33633093525179447 -0.00000000000000000 -1.00000000000000000 -0.00000000000000000 0.00000000000000000 0.00000000000000000 -1.00000000000000000 1.00000000000000000 -0.00000000000000000 0.00000000000000000 
1 49.06329113924050489 20.06329113924050489 0.00000000000000000 -0.00000000000000000 -0.00000000000000000 -1.00000000000000000 -1.00000000000000000 0.00000000000000000 0.00000000000000000 0.00000000000000000 1.00000000000000000 -0.00000000000000000 
Triangulations 0

TShapes 56
Ve
0.000000100000000
0.000000000000000 0.000000000000000 170.000000000000000
0 0

0101101
*
Ve
0.000000100000000
0.000000000000000 0.000000000000000 0.000000000000000
0 0

0101101
*
Ed
 0.000000100000000 1 1 0
1  1 0 0.000000000000000 170.000000000000000
2  1 1 0 0.000000000000000 170.000000000000000
2  2 2 0 0.000000000000000 170.000000000000000
0

0101000
-56 0 +55 0 *
Ve
0.000000100000000
0.000000000000000 50.000000000000000 170.000000000000000
0 0

0101101
*
Ed
 0.000000100000000 1 1 0
1  2 0 0.000000000000000 50.000000000000000
2  3 1 0 0.000000000000000 50.000000000000000
2  4 3 0 0.000000000000000 50.000000000000000
0

0101000
-53 0 +56 0 *
Ve
0.000000100000000
0.000000000000000 50.000000000000000 0.000000000000000
0 0

0101101
*
Ed
 0.000000100000000 1 1 0
1  3 0 0.000000000000000 170.000000000000000
2  5 1 0 0.000000000000000 170.000000000000000
2  6 4 0 0.000000000000000 170.000000000000000
0

0101000
-53 0 +51 0 *
Ed
 0.000000100000000 1 1 0
1  4 0 0.000000000000000 50.000000000000000
2  7 1 0 0.000000000000000 50.000000000000000
2  8 5 0 0.000000000000000 50.000000000000000
0

0101000
-51 0 +55 0 *
Wi

0101100
-54 0 -52 0 +50 0 +49 0 *
Fa
0  0.000000100000000 1 0

0111000
+48 0 *
Ve
0.000000100000000
69.000000000000000 50.000000000000000 170.000000000000000
0 0

0101101
*
Ed
 0.000000100000000 1 1 0
1  5 0 0.000000000000000 69.000000000000000
2  9 4 0 0.000000000000000 69.000000000000000
2  10 3 0 0.000000000000000 69.000000000000000
0

0101000
-46 0 +53 0 *
Ve
0.000000100000000
69.000000000000000 0.000000000000000 170.000000000000000
0 0

0101101
*
Ed
 0.000000100000000 1 1 0
1  6 0 0.000000000000000 50.000000000000000
2  11 6 0 0.000000000000000 50.000000000000000
2  12 3 0 0.000000000000000 50.000000000000000
0

0101000
-46 0 +44 0 *
Ed
 0.000000100000000 1 1 0
1  7 0 0.000000000000000 69.000000000000000
2  13 2 0 0.000000000000000 69.000000000000000
2  14 3 0 0.000000000000000 69.000000000000000
0

0101000
-44 0 +56 0 *
Wi

0101100
-52 0 -45 0 +43 0 +42 0 *
Fa
0  0.000000100000000 3 0

0111000
+41 0 *
Ve
0.000000100000000
69.000000000000000 50.000000000000000 0.000000000000000
0 0

0101101
*
Ed
 0.000000100000000 1 1 0
1  8 0 0.000000000000000 69.000000000000000
2  15 4 0 0.000000000000000 69.000000000000000
2  16 5 0 0.000000000000000 69.000000000000000
0

0101000
-39 0 +51 0 *
Ed
 0.000000100000000 1 1 0
1  9 0 0.000000000000000 170.000000000000000
2  17 6 0 0.000000000000000 170.000000000000000
2  18 4 0 0.000000000000000 170.000000000000000
0

0101000
-46 0 +39 0 *
Wi

0101100
-38 0 -37 0 +45 0 +50 0 *
Fa
0  0.000000100000000 4 0

0111000
+36 0 *
Ve
0.000000150000000
69.000000000000000 0.000000000000000 75.000000000000000
0 0

0101101
*
Ed
 0.000000100000000 1 1 0
1  10 0 75.000000000000000 170.000000000000000
2  19 6 0 75.000000000000000 170.000000000000000
2  20 2 0 75.000000000000000 170.000000000000000
0

0101000
+34 5 -44 0 *
Ve
0.000000150000000
69.000000000000000 10.000000000000000 0.000000000000000
0 0

0101101
*
Ed
 0.000000100000000 1 1 0
1  11 0 10.000000000000000 50.000000000000000
2  21 6 0 10.000000000000000 50.000000000000000
2  22 5 0 10.000000000000000 50.000000000000000
0

0101000
+32 5 -39 0 *
Ve
0.000000150000000
69.000000000000000 10.000000000000000 75.000000000000000
0 0

0101101
*
Ed
 0.000000150000000 1 1 0
1  12 0 0.000000000000000 75.000000000000000
2  23 6 4 0.000000000000000 75.000000000000000
2  24 7 8 0.000000000000000 75.000000000000000
0

0101000
+32 0 -30 0 *
Ed
 0.000000150000000 1 1 0
1  13 0 -10.000000000000000 0.000000000000000
2  25 6 4 -10.000000000000000 0.000000000000000
2  26 8 8 -10.000000000000000 0.000000000000000
0

0101000
+30 0 -34 0 *
Wi

0101100
-33 4 -43 4 +37 4 +31 4 -29 0 -28 0 *
Fa
0  0.000000100000000 6 4

0111000
+27 0 *
Ve
0.000000100000000
58.000000000000000 10.000000000000000 0.000000000000000
0 0

0101101
*
Ed
 0.000000100000000 1 1 0
1  14 0 19.000000000000000 58.000000000000000
2  27 7 0 19.000000000000000 58.000000000000000
2  28 9 0 19.000000000000000 58.000000000000000
0

0101000
+32 9 -25 0 *
Ve
0.000000100000000
58.000000000000000 10.000000000000000 75.000000000000000
0 0

0101101
*
Ed
 0.000000100000000 1 1 0
1  15 0 0.000000000000000 75.000000000000000
2  29 10 0 0.000000000000000 75.000000000000000
2  30 7 0 0.000000000000000 75.000000000000000
0

0101000
-23 0 +25 0 *
Ed
 0.000000100000000 1 1 0
1  16 0 19.000000000000000 58.000000000000000
2  31 7 0 19.000000000000000 58.000000000000000
2  32 8 0 19.000000000000000 58.000000000000000
0

0101000
+30 9 -23 0 *
Wi

0101100
-24 8 -22 8 +21 8 +29 0 *
Fa
0  0.000000100000000 7 8

0111000
+20 0 *
Ve
0.000000100000000
58.000000000000000 0.000000000000000 75.000000000000000
0 0

0101101
*
Ed
 0.000000100000000 1 1 0
1  17 0 0.000000000000000 10.000000000000000
2  33 10 0 0.000000000000000 10.000000000000000
2  34 8 0 0.000000000000000 10.000000000000000
0

0101000
-23 0 +18 0 *
Ed
 0.000000100000000 1 1 0
1  18 0 19.000000000000000 58.000000000000000
2  35 11 0 19.000000000000000 58.000000000000000
2  36 8 0 19.000000000000000 58.000000000000000
0

0101000
+34 9 -18 0 *
Wi

0101100
-21 8 +17 8 +16 8 +28 0 *
Fa
0  0.000000100000000 8 8

0111000
+15 0 *
Ve
0.000000100000000
58.000000000000000 0.000000000000000 0.000000000000000
0 0

0101101
*
Ed
 0.000000100000000 1 1 0
1  19 0 0.000000000000000 75.000000000000000
2  37 10 0 0.000000000000000 75.000000000000000
2  38 11 0 0.000000000000000 75.000000000000000
0

0101000
-18 0 +13 0 *
Ed
 0.000000100000000 1 1 0
1  20 0 0.000000000000000 10.000000000000000
2  39 10 0 0.000000000000000 10.000000000000000
2  40 9 0 0.000000000000000 10.000000000000000
0

0101000
-25 0 +13 0 *
Wi

0101100
-12 0 -17 0 +22 0 +11 0 *
Fa
0  0.000000100000000 10 0

0111000
+10 0 *
Ed
 0.000000100000000 1 1 0
1  21 0 0.000000000000000 108.000000000000000
0

0101000
+55 4 -13 8 *
Wi

0101000
+8 0 +12 8 -16 8 +33 4 -42 4 -54 4 *
Fa
0  0.000000100000000 12 0

0111000
+7 0 *
Wi

0101000
+38 4 -31 4 +24 8 -11 8 -8 0 +49 4 *
Fa
0  0.000000100000000 13 0

0111000
+5 0 *
Sh

0101000
-47 4 +40 4 +35 4 +26 0 +19 0 +14 0 +9 8 +6 0 +4 0 *
So

0100000
+3 0 *
Co

1100000
+2 0 *

+1 1 